<svg width="28" height="28" viewBox="0 0 28 28" fill="none" xmlns="http://www.w3.org/2000/svg">
<path d="M9.63641 23.7703C9.63641 22.2275 9.63641 21.4561 10.1157 20.9768C10.595 20.4976 11.3664 20.4976 12.9091 20.4976H15.091C16.6337 20.4976 17.4051 20.4976 17.8844 20.9768C18.3637 21.4561 18.3637 22.2275 18.3637 23.7703V24.8612H9.63641V23.7703Z" stroke="#00BF13" stroke-width="1.63636" stroke-linecap="round" stroke-linejoin="round"/>
<path d="M14 15.043L14 20.4975" stroke="#00BF13" stroke-width="1.63636" stroke-linecap="round" stroke-linejoin="round"/>
<path d="M7.45459 24.8613H20.5455" stroke="#00BF13" stroke-width="1.63636" stroke-linecap="round" stroke-linejoin="round"/>
<path d="M15.1309 3.98825L16.2827 6.31103C16.4398 6.63437 16.8587 6.94452 17.2121 7.00391L19.2999 7.35365C20.635 7.57801 20.9491 8.55463 19.9871 9.51806L18.364 11.1546C18.0891 11.4317 17.9385 11.9662 18.0236 12.3489L18.4883 14.3748C18.8548 15.9783 18.0105 16.5986 16.6034 15.7605L14.6466 14.5925C14.2931 14.3814 13.7107 14.3814 13.3507 14.5925L11.3938 15.7605C9.99325 16.5986 9.14243 15.9717 9.50894 14.3748L9.97361 12.3489C10.0587 11.9662 9.90817 11.4317 9.63329 11.1546L8.01019 9.51806C7.05466 8.55463 7.36227 7.57801 8.69739 7.35365L10.7852 7.00391C11.132 6.94452 11.5509 6.63437 11.708 6.31103L12.8598 3.98825C13.4881 2.72788 14.5091 2.72788 15.1309 3.98825Z" stroke="#00BF13" stroke-width="1.63636" stroke-linecap="round" stroke-linejoin="round"/>
</svg>
