<svg width="16" height="17" viewBox="0 0 16 17" fill="none" xmlns="http://www.w3.org/2000/svg">
<g clip-path="url(#clip0_340_11093)">
<path d="M8.58709 5.02382L11.769 5.87161M7.90501 7.55502L9.49598 7.97891M7.98415 12.3237L8.62054 12.4933C10.4205 12.9729 11.3205 13.2127 12.0295 12.8056C12.7385 12.3986 12.9797 11.5037 13.462 9.71384L14.1441 7.18264C14.6264 5.39281 14.8675 4.4979 14.4582 3.79288C14.0488 3.08787 13.1488 2.84808 11.3489 2.36849L10.7125 2.19894C8.91249 1.71935 8.0125 1.47956 7.30349 1.8866C6.59447 2.29364 6.35332 3.18856 5.87102 4.97838L5.18894 7.50958C4.70664 9.29941 4.46549 10.1943 4.87484 10.8993C5.28419 11.6044 6.18418 11.8441 7.98415 12.3237Z" stroke="#D2D2D2" stroke-width="1.5" stroke-linecap="round"/>
<path d="M8.00016 14.3102L7.36527 14.4831C5.56952 14.9721 4.67164 15.2166 3.96429 14.8016C3.25694 14.3866 3.01636 13.4741 2.53519 11.6491L1.85471 9.0683C1.37354 7.24337 1.13295 6.3309 1.54134 5.61205C1.89461 4.99024 2.66683 5.01287 3.66683 5.0128" stroke="#D2D2D2" stroke-width="1.5" stroke-linecap="round"/>
</g>
<defs>
<clipPath id="clip0_340_11093">
<rect width="16" height="16" fill="white" transform="translate(0 0.346191)"/>
</clipPath>
</defs>
</svg>
