<svg width="37" height="29" viewBox="0 0 37 29" fill="none" xmlns="http://www.w3.org/2000/svg">
<path d="M22.875 1H32C34.2091 1 36 2.79086 36 5V10.75V18.25V24C36 26.2091 34.2091 28 32 28H22.875H14.125H5C2.79086 28 1 26.2091 1 24V18.25V10.75V5C1 2.79086 2.79086 1 5 1H14.125H22.875Z" fill="white" fill-opacity="0.26"/>
<path d="M14.125 1H22.875M14.125 1H5C2.79086 1 1 2.79086 1 5V10.75M14.125 1V5.875M22.875 1H32C34.2091 1 36 2.79086 36 5V10.75M22.875 1V4.875C22.875 5.42728 22.4273 5.875 21.875 5.875H14.125M14.125 28H5C2.79086 28 1 26.2091 1 24V18.25M14.125 28H22.875M14.125 28V23.125M22.875 28H32C34.2091 28 36 26.2091 36 24V18.25M22.875 28V23.125M1 18.25V10.75M1 18.25H14.125M36 18.25V10.75M36 18.25H22.875M1 10.75H14.125M36 10.75H23.875C23.3227 10.75 22.875 11.1977 22.875 11.75V18.25M14.125 10.75V18.25M14.125 10.75V5.875M14.125 18.25V23.125M22.875 18.25V23.125M14.125 23.125H22.875" stroke="#D2D2D2"/>
</svg>
