<svg width="24" height="25" viewBox="0 0 24 25" fill="none" xmlns="http://www.w3.org/2000/svg">
<ellipse cx="15.5" cy="11.4521" rx="6.5" ry="2" stroke="#00BF13" stroke-width="1.5"/>
<path d="M22 15.9521C22 17.0567 19.0899 17.9521 15.5 17.9521C11.9101 17.9521 9 17.0567 9 15.9521" stroke="#00BF13" stroke-width="1.5"/>
<path d="M22 11.4521V20.2521C22 21.4672 19.0899 22.4521 15.5 22.4521C11.9101 22.4521 9 21.4672 9 20.2521V11.4521" stroke="#00BF13" stroke-width="1.5"/>
<ellipse cx="8.5" cy="4.45215" rx="6.5" ry="2" stroke="#00BF13" stroke-width="1.5"/>
<path d="M6 11.4521C4.10819 11.2219 2.36991 10.6267 2 9.45215M6 16.4521C4.10819 16.2219 2.36991 15.6267 2 14.4521" stroke="#00BF13" stroke-width="1.5" stroke-linecap="round"/>
<path d="M6 21.4521C4.10819 21.2219 2.36991 20.6267 2 19.4521L2 4.45215" stroke="#00BF13" stroke-width="1.5" stroke-linecap="round"/>
<path d="M15 6.45215V4.45215" stroke="#00BF13" stroke-width="1.5" stroke-linecap="round"/>
</svg>
