<svg width="24" height="25" viewBox="0 0 24 25" fill="none" xmlns="http://www.w3.org/2000/svg">
<path d="M13.0456 16.0192C12.7527 16.3121 12.7527 16.787 13.0456 17.0799C13.3385 17.3728 13.8133 17.3728 14.1062 17.0799L13.0456 16.0192ZM15.0518 16.1344C15.3447 15.8415 15.3447 15.3666 15.0518 15.0737C14.7589 14.7808 14.284 14.7808 13.9911 15.0737L15.0518 16.1344ZM15.8822 13.1826C15.5893 13.4755 15.5893 13.9504 15.8822 14.2433C16.1751 14.5362 16.65 14.5362 16.9429 14.2433L15.8822 13.1826ZM19.1491 12.037C19.442 11.7441 19.442 11.2692 19.1491 10.9764C18.8562 10.6835 18.3813 10.6835 18.0885 10.9764L19.1491 12.037ZM2.95982 16.0192C2.66693 16.3121 2.66693 16.787 2.95982 17.0799C3.25272 17.3728 3.72759 17.3728 4.02048 17.0799L2.95982 16.0192ZM11.1043 22.4245L11.0167 21.6797L11.1043 22.4245ZM10.4071 22.4457L10.4501 21.6969L10.4071 22.4457ZM21.9935 10.8593L21.2447 10.9022L21.9935 10.8593ZM21.9724 11.5564L21.2275 11.4689L21.9724 11.5564ZM7.79134 6.30102L7.261 5.77069V5.77069L7.79134 6.30102ZM12.8957 2.47977L12.9833 3.22464L12.8957 2.47977ZM13.5929 2.45864L13.55 3.20741L13.5929 2.45864ZM5.84887 8.24348L6.3792 8.77381L5.84887 8.24348ZM2.02762 13.3479L2.77249 13.4354L2.02762 13.3479ZM2.00649 14.045L2.75526 14.0021L2.00649 14.045ZM13.5759 16.5496L14.1062 17.0799L15.0518 16.1344L14.5214 15.604L13.9911 15.0737L13.0456 16.0192L13.5759 16.5496ZM16.4125 13.7129L16.9429 14.2433L19.1491 12.037L18.6188 11.5067L18.0885 10.9764L15.8822 13.1826L16.4125 13.7129ZM3.49015 16.5496L4.02048 17.0799L16.6277 4.4727L16.0973 3.94237L15.567 3.41204L2.95982 16.0192L3.49015 16.5496ZM5.84887 8.24348L6.3792 8.77381L8.32167 6.83135L7.79134 6.30102L7.261 5.77069L5.31854 7.71315L5.84887 8.24348ZM18.1511 16.6608L17.6208 16.1305L15.6783 18.0729L16.2087 18.6033L16.739 19.1336L18.6815 17.1911L18.1511 16.6608ZM16.2087 18.6033L15.6783 18.0729C14.4491 19.3022 13.5709 20.1787 12.8216 20.776C12.0832 21.3645 11.5463 21.6174 11.0167 21.6797L11.1043 22.4245L11.1918 23.1694C12.1162 23.0608 12.9147 22.6199 13.7565 21.949C14.5875 21.2867 15.5346 20.338 16.739 19.1336L16.2087 18.6033ZM5.52513 18.927L4.9948 19.4573C6.12602 20.5886 7.02373 21.4883 7.82372 22.1073C8.64024 22.7392 9.43135 23.1409 10.3642 23.1944L10.4071 22.4457L10.4501 21.6969C9.93661 21.6674 9.43196 21.4552 8.74168 20.921C8.03487 20.3741 7.21471 19.5559 6.05546 18.3967L5.52513 18.927ZM11.1043 22.4245L11.0167 21.6797C10.827 21.7019 10.6374 21.7076 10.4501 21.6969L10.4071 22.4457L10.3642 23.1944C10.6395 23.2102 10.9164 23.2018 11.1918 23.1694L11.1043 22.4245ZM18.4749 5.97728L17.9445 6.50761C19.1038 7.66686 19.9219 8.48701 20.4689 9.19383C21.003 9.88411 21.2153 10.3888 21.2447 10.9022L21.9935 10.8593L22.7423 10.8163C22.6888 9.8835 22.287 9.09239 21.6552 8.27586C21.0361 7.47588 20.1364 6.57817 19.0052 5.44695L18.4749 5.97728ZM18.1511 16.6608L18.6815 17.1911C19.8858 15.9868 20.8345 15.0397 21.4968 14.2087C22.1678 13.3668 22.6087 12.5684 22.7173 11.6439L21.9724 11.5564L21.2275 11.4689C21.1653 11.9984 20.9124 12.5353 20.3238 13.2738C19.7266 14.0231 18.8501 14.9012 17.6208 16.1305L18.1511 16.6608ZM21.9935 10.8593L21.2447 10.9022C21.2555 11.0896 21.2498 11.2792 21.2275 11.4689L21.9724 11.5564L22.7173 11.6439C22.7496 11.3685 22.7581 11.0916 22.7423 10.8163L21.9935 10.8593ZM7.79134 6.30102L8.32167 6.83135C9.55093 5.60209 10.4291 4.72555 11.1784 4.12834C11.9168 3.53979 12.4537 3.28685 12.9833 3.22464L12.8957 2.47977L12.8082 1.73489C11.8838 1.84349 11.0853 2.28437 10.2435 2.95533C9.41246 3.61765 8.46537 4.56633 7.261 5.77069L7.79134 6.30102ZM18.4749 5.97728L19.0052 5.44695C17.874 4.31573 16.9763 3.41601 16.1763 2.79697C15.3598 2.16514 14.5686 1.76336 13.6358 1.70987L13.5929 2.45864L13.55 3.20741C14.0634 3.23685 14.568 3.44914 15.2583 3.98328C15.9651 4.53022 16.7853 5.34836 17.9445 6.50761L18.4749 5.97728ZM12.8957 2.47977L12.9833 3.22464C13.173 3.20235 13.3626 3.19667 13.55 3.20741L13.5929 2.45864L13.6358 1.70987C13.3605 1.69409 13.0836 1.70254 12.8082 1.73489L12.8957 2.47977ZM5.84887 8.24348L5.31854 7.71315C4.11418 8.91752 3.1655 9.86461 2.50318 10.6956C1.83222 11.5375 1.39135 12.3359 1.28274 13.2604L2.02762 13.3479L2.77249 13.4354C2.8347 12.9059 3.08764 12.369 3.6762 11.6305C4.2734 10.8812 5.14994 10.0031 6.3792 8.77381L5.84887 8.24348ZM5.52513 18.927L6.05546 18.3967C4.89621 17.2374 4.07807 16.4173 3.53114 15.7105C2.997 15.0202 2.7847 14.5155 2.75526 14.0021L2.00649 14.045L1.25772 14.088C1.31121 15.0208 1.713 15.8119 2.34483 16.6284C2.96386 17.4284 3.86358 18.3261 4.9948 19.4573L5.52513 18.927ZM2.02762 13.3479L1.28274 13.2604C1.25039 13.5358 1.24194 13.8127 1.25772 14.088L2.00649 14.045L2.75526 14.0021C2.74452 13.8147 2.75021 13.6251 2.77249 13.4354L2.02762 13.3479Z" fill="#00BF13"/>
<path d="M4 22.4521H20" stroke="#00BF13" stroke-width="1.5" stroke-linecap="round"/>
</svg>
