<svg width="24" height="25" viewBox="0 0 24 25" fill="none" xmlns="http://www.w3.org/2000/svg">
<path d="M12.5 20.4521H10.5C6.74142 20.4521 4.86213 20.4521 3.60746 19.4613C3.40678 19.3028 3.22119 19.1281 3.0528 18.9392C2 17.7584 2 15.9896 2 12.4521C2 8.91466 2 7.14592 3.0528 5.96505C3.22119 5.77618 3.40678 5.6015 3.60746 5.44302C4.86213 4.45215 6.74142 4.45215 10.5 4.45215H13.5C17.2586 4.45215 19.1379 4.45215 20.3925 5.44302C20.5932 5.6015 20.7788 5.77618 20.9472 5.96505C21.8957 7.02899 21.9897 8.57013 21.999 11.4521" stroke="#00BF13" stroke-width="1.5" stroke-linecap="round" stroke-linejoin="round"/>
<path d="M2 9.45215H22" stroke="#00BF13" stroke-width="1.5" stroke-linejoin="round"/>
<path d="M22 14.4521L16 20.4521M22 20.4521L16 14.4521" stroke="#00BF13" stroke-width="1.5" stroke-linecap="round"/>
</svg>
