<svg width="57" height="37" viewBox="0 0 57 37" fill="none" xmlns="http://www.w3.org/2000/svg">
<path d="M0.150003 6.25068C0.252656 6.56571 0.41006 6.86016 0.614985 7.12052C0.909833 7.51539 1.25897 7.86665 1.65204 8.16388C6.29547 11.8889 10.3204 14.5464 10.6328 14.0998C10.9453 13.6532 7.69865 10.5236 3.31191 6.96503C4.04337 6.97345 5.02059 6.97832 6.29541 7.03181C7.57022 7.0853 9.20894 7.19191 11.1931 7.48136C13.5778 7.8104 15.9327 8.32796 18.2356 9.02916C19.7199 9.47816 21.1798 10.0043 22.6093 10.6056C24.2861 11.2953 25.9139 12.0987 27.4814 13.01C28.3833 13.5364 29.2545 14.1135 30.091 14.7386C30.0475 14.7618 30.004 14.7851 29.9605 14.8083C27.5013 15.6135 25.3336 17.1251 23.728 19.1545C22.3599 20.8612 21.533 22.9377 21.3532 25.1176C21.1734 27.2975 21.649 29.4815 22.719 31.3892C23.4359 32.7416 24.4356 33.9237 25.6502 34.8552C26.8507 35.8057 28.2965 36.3958 29.8192 36.557C31.2668 36.6905 32.7229 36.4184 34.0245 35.7709C35.2734 35.1298 36.3671 34.2235 37.2292 33.1155C38.0913 32.0075 38.7009 30.7245 39.0155 29.3563C39.5714 26.6256 39.292 23.7908 38.2137 21.2211C37.3732 19.1326 36.1565 17.216 34.624 15.5668C35.4423 15.4894 36.2646 15.4606 37.0864 15.4808C39.2102 15.5421 41.3211 15.8333 43.3823 16.3492C45.2742 16.8022 47.0966 17.5073 48.8008 18.4456C50.282 19.2943 51.5587 20.4582 52.5405 21.8548C54.0065 23.939 55.028 26.3026 55.5413 28.7985C55.6773 29.7336 55.8636 30.6607 56.0993 31.5758C56.2369 30.6327 56.2129 29.673 56.0282 28.738C55.6869 26.0872 54.7549 23.547 53.3008 21.3046C52.2771 19.7238 50.9169 18.3886 49.3174 17.3945C47.5424 16.3269 45.6292 15.5084 43.6313 14.9619C41.4774 14.3533 39.2637 13.9804 37.0293 13.8497C35.6919 13.7811 34.3511 13.8399 33.0249 14.025C31.643 12.7966 30.1414 11.7099 28.5427 10.7811C26.8732 9.80826 25.1362 8.9561 23.3451 8.23109C19.4921 6.62188 15.4311 5.56539 11.2824 5.09296C9.5999 4.90698 7.90678 4.8352 6.21461 4.87813C5.18852 4.89668 4.16448 4.97723 3.14811 5.11935L2.67739 5.19523C2.73484 5.16831 2.79086 5.13837 2.84516 5.10554C3.25555 4.78232 3.64107 4.47238 4.00796 4.1724C4.74839 3.58487 5.40848 3.05627 5.95427 2.61273C7.06738 1.70616 7.68138 1.10632 7.55228 0.879757C7.42317 0.653191 6.57175 0.868669 5.25819 1.47498C4.48731 1.83484 3.73649 2.2362 3.00902 2.67729C2.58031 2.90646 2.15995 3.21105 1.71721 3.50364C1.48529 3.66756 1.29023 3.79579 1.02146 3.99539C0.861001 4.11597 0.715595 4.25539 0.588364 4.41064C0.401408 4.62733 0.265167 4.88302 0.189578 5.15905C0.0949548 5.5136 0.0986142 5.88722 0.200145 6.23985L0.150003 6.25068ZM30.6082 16.4832C30.989 16.3436 31.3701 16.2197 31.7579 16.1083C31.9616 16.295 32.1648 16.466 32.356 16.6593C33.9437 18.1811 35.1971 20.0168 36.0363 22.0495C36.9292 24.1258 37.1827 26.4212 36.7645 28.6423C36.5313 29.7006 36.0725 30.6961 35.4194 31.5609C34.7663 32.4256 33.9343 33.1392 32.9802 33.653C32.032 34.1465 30.965 34.3655 29.8991 34.2854C28.7936 34.1839 27.7402 33.7686 26.8628 33.0886C25.9181 32.3548 25.1279 31.4414 24.5375 30.4011C23.9471 29.3608 23.5682 28.214 23.4227 27.0268C23.1914 24.6785 23.8519 22.3293 25.273 20.4456C26.6212 18.627 28.4725 17.243 30.5983 16.4646" fill="#00990F"/>
</svg>
