<svg width="16" height="17" viewBox="0 0 16 17" fill="none" xmlns="http://www.w3.org/2000/svg">
<path d="M1.3335 4.34611C1.3335 3.08903 1.3335 2.46049 1.72402 2.06997C2.11454 1.67944 2.74308 1.67944 4.00016 1.67944C5.25724 1.67944 5.88578 1.67944 6.27631 2.06997C6.66683 2.46049 6.66683 3.08903 6.66683 4.34611V5.67944C6.66683 6.93652 6.66683 7.56506 6.27631 7.95559C5.88578 8.34611 5.25724 8.34611 4.00016 8.34611C2.74308 8.34611 2.11454 8.34611 1.72402 7.95559C1.3335 7.56506 1.3335 6.93652 1.3335 5.67944V4.34611Z" stroke="#E8E8E8"/>
<path d="M1.3335 13.0127C1.3335 12.3914 1.3335 12.0808 1.43499 11.8358C1.57032 11.5091 1.82988 11.2495 2.15658 11.1142C2.40161 11.0127 2.71224 11.0127 3.3335 11.0127H4.66683C5.28808 11.0127 5.59871 11.0127 5.84374 11.1142C6.17045 11.2495 6.43001 11.5091 6.56534 11.8358C6.66683 12.0808 6.66683 12.3914 6.66683 13.0127C6.66683 13.634 6.66683 13.9446 6.56534 14.1896C6.43001 14.5163 6.17045 14.7759 5.84374 14.9112C5.59871 15.0127 5.28808 15.0127 4.66683 15.0127H3.3335C2.71224 15.0127 2.40161 15.0127 2.15658 14.9112C1.82988 14.7759 1.57032 14.5163 1.43499 14.1896C1.3335 13.9446 1.3335 13.634 1.3335 13.0127Z" stroke="#E8E8E8"/>
<path d="M9.3335 11.0129C9.3335 9.75578 9.3335 9.12724 9.72402 8.73672C10.1145 8.34619 10.7431 8.34619 12.0002 8.34619C13.2572 8.34619 13.8858 8.34619 14.2763 8.73672C14.6668 9.12724 14.6668 9.75578 14.6668 11.0129V12.3462C14.6668 13.6033 14.6668 14.2318 14.2763 14.6223C13.8858 15.0129 13.2572 15.0129 12.0002 15.0129C10.7431 15.0129 10.1145 15.0129 9.72402 14.6223C9.3335 14.2318 9.3335 13.6033 9.3335 12.3462V11.0129Z" stroke="#E8E8E8"/>
<path d="M9.3335 3.67944C9.3335 3.05819 9.3335 2.74756 9.43499 2.50253C9.57032 2.17583 9.82988 1.91626 10.1566 1.78094C10.4016 1.67944 10.7122 1.67944 11.3335 1.67944H12.6668C13.2881 1.67944 13.5987 1.67944 13.8437 1.78094C14.1704 1.91626 14.43 2.17583 14.5653 2.50253C14.6668 2.74756 14.6668 3.05819 14.6668 3.67944C14.6668 4.3007 14.6668 4.61133 14.5653 4.85635C14.43 5.18306 14.1704 5.44262 13.8437 5.57795C13.5987 5.67944 13.2881 5.67944 12.6668 5.67944H11.3335C10.7122 5.67944 10.4016 5.67944 10.1566 5.57795C9.82988 5.44262 9.57032 5.18306 9.43499 4.85635C9.3335 4.61133 9.3335 4.3007 9.3335 3.67944Z" stroke="#E8E8E8"/>
</svg>
