<svg width="48" height="48" viewBox="0 0 48 48" fill="none" xmlns="http://www.w3.org/2000/svg">
<path d="M44 24C44 12.9543 35.0457 4 24 4C12.9543 4 4 12.9543 4 24C4 35.0457 12.9543 44 24 44C35.0457 44 44 35.0457 44 24Z" stroke="white" stroke-opacity="0.1" stroke-width="3"/>
<path d="M24 4V8" stroke="white" stroke-opacity="0.1" stroke-width="3" stroke-linecap="round"/>
<path d="M44 24L40 24" stroke="white" stroke-opacity="0.1" stroke-width="3" stroke-linecap="round"/>
<path d="M24 40L24 44" stroke="white" stroke-opacity="0.1" stroke-width="3" stroke-linecap="round"/>
<path d="M8 24H4" stroke="white" stroke-opacity="0.1" stroke-width="3" stroke-linecap="round"/>
<path d="M24 18C21.7909 18 20 19.3431 20 21C20 22.6569 21.7909 24 24 24C26.2091 24 28 25.3431 28 27C28 28.6569 26.2091 30 24 30M24 18C25.7416 18 27.2233 18.8348 27.7724 20M24 18V16M24 30C22.2584 30 20.7767 29.1652 20.2276 28M24 30V32" stroke="#00BF13" stroke-width="3" stroke-linecap="round"/>
</svg>
