<svg width="20" height="20" viewBox="0 0 20 20" fill="none" xmlns="http://www.w3.org/2000/svg">
<circle cx="9.99998" cy="9.99992" r="8.33333" transform="rotate(-180 9.99998 9.99992)" stroke="#777777" stroke-width="1.25"/>
<path d="M12.7083 12.5C12.7083 12.8452 12.9881 13.125 13.3333 13.125C13.6785 13.125 13.9583 12.8452 13.9583 12.5L12.7083 12.5ZM13.9583 7.5C13.9583 7.15482 13.6785 6.875 13.3333 6.875C12.9881 6.875 12.7083 7.15482 12.7083 7.5H13.9583ZM9.69241 7.86938C9.43617 7.6381 9.04096 7.65833 8.80968 7.91456C8.5784 8.1708 8.59863 8.56601 8.85486 8.79729L9.69241 7.86938ZM10.1409 9.11612L10.5597 8.65216L10.5597 8.65216L10.1409 9.11612ZM10.1409 10.8839L10.5597 11.3478H10.5597L10.1409 10.8839ZM8.85486 11.2027C8.59863 11.434 8.5784 11.8292 8.80968 12.0854C9.04096 12.3417 9.43617 12.3619 9.69241 12.1306L8.85486 11.2027ZM10.8333 10H11.4583H10.8333ZM5.83331 9.375C5.48814 9.375 5.20831 9.65482 5.20831 10C5.20831 10.3452 5.48814 10.625 5.83331 10.625V9.375ZM13.3333 12.5L13.9583 12.5L13.9583 7.5H13.3333H12.7083L12.7083 12.5L13.3333 12.5ZM9.27364 8.33333L8.85486 8.79729L9.72211 9.58007L10.1409 9.11612L10.5597 8.65216L9.69241 7.86938L9.27364 8.33333ZM10.1409 10.8839L9.72211 10.4199L8.85486 11.2027L9.27364 11.6667L9.69241 12.1306L10.5597 11.3478L10.1409 10.8839ZM10.1409 9.11612L9.72211 9.58007C9.96643 9.8006 10.1013 9.92413 10.1829 10.0207C10.2551 10.1061 10.2083 10.0828 10.2083 10H10.8333H11.4583C11.4583 9.65836 11.2962 9.40143 11.1375 9.21375C10.9883 9.03727 10.777 8.8483 10.5597 8.65216L10.1409 9.11612ZM10.1409 10.8839L10.5597 11.3478C10.7769 11.1517 10.9883 10.9627 11.1375 10.7862C11.2962 10.5986 11.4583 10.3416 11.4583 10H10.8333H10.2083C10.2083 9.91724 10.2551 9.89392 10.1829 9.9793C10.1013 10.0759 9.96643 10.1994 9.72211 10.4199L10.1409 10.8839ZM10.8333 10L10.8333 9.375L5.83331 9.375V10V10.625L10.8333 10.625V10Z" fill="#777777"/>
</svg>
