<svg width="182" height="26" viewBox="0 0 182 26" fill="none" xmlns="http://www.w3.org/2000/svg">
<g clip-path="url(#clip0_34_13452)">
<path d="M23.4358 0.162495C23.4181 0.110986 23.3827 0.0755739 23.3312 0.056258C23.1204 -0.0161766 22.9161 -0.0193959 22.715 0.0482097C21.1448 0.574568 19.1274 1.18463 16.6643 1.88C16.5163 1.92185 16.4053 2.00394 16.3296 2.12467C16.283 2.20032 16.2991 2.29851 16.3683 2.35646L17.8162 3.54117C17.9063 3.61521 17.9175 3.74881 17.8419 3.83734L13.651 8.75163C13.5303 8.89167 13.392 8.91581 13.2343 8.82084C12.5586 8.41682 11.8459 7.99348 11.0978 7.54922C10.953 7.4639 10.8211 7.39791 10.7036 7.35284C10.6023 7.31421 10.4864 7.34962 10.4269 7.43976C10.2693 7.67638 10.1341 7.89368 10.0199 8.09328C7.9027 11.8052 5.85146 15.554 3.86619 19.3383C3.7037 19.6458 3.52673 19.9468 3.33367 20.2398C3.15188 20.5166 3.05696 20.7307 3.04891 20.8836C3.03443 21.1653 3.16797 21.3923 3.45112 21.5677C3.49777 21.5967 3.54121 21.5935 3.58465 21.5597C3.90641 21.3021 4.12682 21.1025 4.24748 20.9625C5.71793 19.2418 7.227 17.2715 8.53979 15.7086C9.55012 14.5078 10.5653 13.3086 11.5837 12.1094C11.6786 11.9983 11.833 11.9645 11.9649 12.0257L14.1964 13.0559C14.3267 13.1154 14.4795 13.0848 14.576 12.9818C16.6096 10.7991 18.5868 8.3975 20.4369 6.30012C20.5077 6.22125 20.5817 6.21642 20.6606 6.28885L22.1294 7.65223C22.2646 7.77779 22.4817 7.73755 22.5654 7.57336C22.67 7.3641 22.7343 7.1629 22.7585 6.96974C23.0127 4.88684 23.2604 2.80233 23.5017 0.717827C23.5226 0.532717 23.5017 0.347606 23.4358 0.162495ZM19.4089 2.62688C19.3333 2.66068 19.2641 2.66229 19.203 2.63171C19.1338 2.59791 19.1354 2.56732 19.2046 2.53674L19.491 2.41441C19.5087 2.40636 19.5312 2.41924 19.5328 2.43855C19.5424 2.52547 19.5006 2.58825 19.4089 2.62688ZM21.0933 1.73513C20.3356 2.04419 19.7017 2.247 19.6776 2.18744C19.6535 2.12789 20.2487 1.8301 21.0065 1.51944C21.7642 1.21038 22.3981 1.00757 22.4222 1.06712C22.4464 1.12668 21.8511 1.42447 21.0933 1.73513Z" fill="#00BF13"/>
<path d="M25.889 22.2197C25.5721 21.9541 25.1876 21.9187 24.7371 21.9396C23.3375 22.004 21.9378 21.975 20.5397 21.8511C20.4866 21.8462 20.4577 21.8173 20.4545 21.7641C20.4271 21.2555 20.4078 20.7581 20.3998 20.2736C20.3531 17.8993 20.3451 15.5251 20.374 13.1509C20.3805 12.6422 20.1343 12.3879 19.6356 12.3879C18.9164 12.3879 17.9351 12.4748 16.6899 12.647C16.0544 12.7356 15.739 13.0768 15.7439 13.674C15.7664 16.3444 15.7857 19.0438 15.8018 21.7738C15.8034 21.8028 15.7809 21.8269 15.7519 21.8285C14.9186 21.8945 14.0739 21.901 13.2164 21.8446C13.1585 21.8414 13.1296 21.8108 13.1279 21.7513C13.1199 19.942 13.1279 17.8945 13.1489 15.6104C13.1521 15.3352 13.0732 15.1243 12.9124 14.9762C12.4892 14.5851 11.9905 14.7267 11.561 15.0647C10.4895 15.9114 9.48559 16.8338 8.55088 17.8301C8.46722 17.9187 8.40286 18.0104 8.35621 18.1022C8.28381 18.2486 8.24842 18.3549 8.25003 18.4241C8.27416 19.5396 8.27255 20.6486 8.24681 21.7513C8.2452 21.8108 8.19533 21.8591 8.1358 21.8607L2.00301 21.8961C1.94027 21.8961 1.90809 21.8639 1.90649 21.7995C1.87431 20.2156 1.86305 18.6253 1.87109 17.0301C1.87431 16.581 1.93866 16.1126 1.93544 15.6587C1.91775 12.2156 1.92418 8.71142 1.95636 5.14764C1.95797 5.01565 2.05128 4.90297 2.17998 4.87882C2.37787 4.84019 2.55966 4.77259 2.72698 4.67762C2.87016 4.59553 2.92325 4.41363 2.84603 4.26716C2.51462 3.641 2.13494 3.03094 1.70538 2.43697C1.45924 2.09895 1.11012 1.83979 0.81732 2.32752C0.530952 2.80237 0.226887 3.43496 0.0354381 3.99351C-0.0884404 4.35891 0.112661 4.63577 0.635525 4.8241C0.767447 4.87239 0.859149 4.83054 0.910631 4.70015C0.955678 4.58587 1.0136 4.47319 1.08277 4.36212C1.09404 4.34442 1.11012 4.32993 1.13104 4.32027C1.16161 4.3074 1.19217 4.31384 1.22274 4.33959C1.24044 4.35569 1.24687 4.37983 1.24366 4.40237C1.18091 4.73718 1.14874 4.9577 1.14874 5.06394C1.13747 6.22933 1.13747 7.48486 1.14874 8.83214C1.15356 9.25066 1.05382 9.73355 1.07473 10.1746C1.11334 10.9843 1.12621 11.7488 1.11173 12.47C1.10047 13.0543 1.09886 13.5903 1.1053 14.078C1.11495 14.8651 1.13265 15.5154 1.03129 16.1722C1.00072 16.3686 0.986245 16.5295 0.987854 16.6535C1.01681 18.3323 1.0136 20.0354 0.976593 21.7609C0.974984 21.8382 0.918675 21.9026 0.841452 21.9154C0.315371 22.0008 0.112661 22.3291 0.233322 22.9006C0.244584 22.9537 0.271933 22.9971 0.315371 23.0293C0.484296 23.1565 0.680571 23.2418 0.907414 23.2836C0.983028 23.2981 1.00716 23.34 0.983028 23.4124C0.754577 24.074 1.60242 24.1545 1.93705 23.7649C2.01267 23.6764 2.07058 23.4559 2.11402 23.1034C2.12046 23.0503 2.15102 23.0229 2.20412 23.0197C4.09125 22.9166 5.97517 22.9344 7.8623 22.8973C11.0107 22.8378 14.9861 22.9585 17.3141 22.8909C20.049 22.8104 22.784 22.7814 25.519 22.804C25.6558 22.804 25.77 22.7766 25.8601 22.7187C26.0338 22.6044 26.0499 22.3549 25.889 22.2197ZM10.7405 16.6197C11.1427 16.3637 11.5449 16.1078 11.9455 15.8503C12.0082 15.81 12.0533 15.8245 12.0822 15.8921C12.1289 16.0048 12.1321 16.1142 12.0935 16.2189C12.0677 16.2865 11.9953 16.3251 11.9246 16.3058L11.7733 16.2639C11.7041 16.2446 11.6414 16.2575 11.5851 16.3042C11.2682 16.5698 11.0172 16.7356 10.829 16.8016C10.2514 17.0092 10.2224 16.9496 10.7405 16.6197ZM11.6076 16.9191L11.3695 16.969C11.273 16.9899 11.2553 16.9625 11.318 16.8853C11.3936 16.7935 11.495 16.779 11.6189 16.845C11.6832 16.8788 11.68 16.903 11.6076 16.9191ZM9.24266 20.6004L9.36011 20.1995C9.37459 20.1496 9.40515 20.1094 9.4502 20.0804C10.2289 19.6008 11.0896 19.1967 12.034 18.8667C12.1063 18.841 12.1321 18.7509 12.0838 18.6913C12.0629 18.6655 12.0388 18.6446 12.0114 18.6301C11.8988 18.5722 11.7942 18.5609 11.6961 18.5947C10.7903 18.9231 10.1259 19.1822 9.69957 19.3706C9.52099 19.4511 9.37137 19.5814 9.25071 19.7633C9.21371 19.8197 9.19762 19.8132 9.20084 19.7472C9.21049 19.5299 9.26197 19.3834 9.35689 19.3078C9.81862 18.9327 10.2852 18.6511 10.7582 18.4643C11.2263 18.2792 11.6688 18.0941 12.0838 17.909C12.1578 17.8752 12.1964 17.8993 12.1997 17.9798C12.2061 18.1907 12.182 18.4112 12.1257 18.6398C12.1112 18.6993 12.1144 18.7605 12.1337 18.8185C12.1852 18.9714 12.2061 19.1275 12.1948 19.2837C12.19 19.3368 12.1627 19.3706 12.1128 19.3851C11.0783 19.6925 10.1356 20.1094 9.28449 20.6325C9.24266 20.6583 9.22819 20.647 9.24266 20.6004ZM12.1385 20.2462C12.1434 20.375 12.0806 20.4442 11.9519 20.4523C11.1877 20.5022 10.4605 20.8096 9.77679 21.1702C9.67383 21.2249 9.55638 21.2555 9.4325 21.2603C9.36011 21.2635 9.33276 21.2297 9.35367 21.1605C9.36172 21.1364 9.37459 21.1154 9.3955 21.0993C10.1002 20.5247 11.1025 20.1094 11.9406 19.8583C12.0629 19.8213 12.1257 19.868 12.1305 19.9951L12.1385 20.2462ZM12.0726 21.9058C12.0404 21.938 11.9905 21.9557 11.9246 21.9605C11.5417 21.9814 11.1604 21.9766 10.7791 21.946H10.7775C10.7775 21.946 10.7775 21.946 10.7791 21.946H10.7887C10.7887 21.946 10.8 21.9444 10.8048 21.9396C10.9158 21.8301 11.0494 21.7851 11.2086 21.8044C11.2617 21.8108 11.31 21.7995 11.355 21.7706C11.5529 21.645 11.7669 21.6016 11.9953 21.6418C12.05 21.6515 12.087 21.682 12.1047 21.7352C12.1289 21.8028 12.1176 21.8607 12.0726 21.9074V21.9058ZM12.2093 21.035C12.1997 21.0913 12.1675 21.1283 12.1128 21.146C11.3727 21.3826 10.689 21.5919 10.0599 21.7738C9.83149 21.8398 9.61269 21.8752 9.40515 21.8832C9.34885 21.8849 9.31989 21.8575 9.31828 21.8012L9.31345 21.645C9.31184 21.5887 9.33919 21.5629 9.3955 21.5645C9.52582 21.5726 9.632 21.5597 9.71405 21.5259C10.2401 21.3166 10.7791 21.1444 11.3293 21.0076C11.3743 20.9963 11.4162 20.977 11.4548 20.9496C11.6237 20.8289 11.7991 20.7275 11.9793 20.6454C12.0388 20.6181 12.087 20.6325 12.1208 20.6889C12.1964 20.8096 12.227 20.9255 12.2093 21.035ZM12.1482 17.468C11.5577 17.579 10.9577 17.7384 10.3479 17.946C10.1709 18.0072 10.076 18.1022 9.92319 18.2004C9.77035 18.2985 9.63843 18.2841 9.53064 18.1585C9.45825 18.0748 9.49203 17.946 9.59499 17.909C9.98433 17.769 10.3656 17.5983 10.7389 17.3971C11.0558 17.2265 11.4017 17.212 11.7267 17.0961C11.8055 17.0672 11.8232 17.0173 11.7765 16.948L11.7444 16.8981C11.7315 16.8788 11.7363 16.8659 11.7588 16.8579L12.0661 16.75C12.124 16.7307 12.1852 16.7694 12.1916 16.8289L12.2447 17.3376C12.2528 17.4116 12.2206 17.4551 12.1482 17.468ZM19.3074 21.814L16.8186 21.8913C16.7751 21.8929 16.7574 21.8736 16.7655 21.8301C16.7832 21.7255 16.8523 21.6531 16.9762 21.6144C17.3559 21.4953 17.7147 21.3327 18.0541 21.1251C18.1008 21.0977 18.149 21.0913 18.2005 21.1058C18.4 21.1637 18.5673 21.1412 18.7009 21.0366C18.7845 20.9722 18.7781 20.9625 18.6816 21.0076C18.5223 21.0832 18.3759 21.0784 18.2391 20.9947C18.1973 20.969 18.2021 20.9062 18.2488 20.8885L19.3315 20.4828C19.3701 20.4684 19.3943 20.4313 19.3959 20.3911V20.3267C19.3975 20.2897 19.3798 20.2736 19.3428 20.2816C18.4113 20.4828 17.5361 20.8193 16.714 21.2877C16.6995 21.2957 16.6931 21.2925 16.6947 21.2748L16.7494 20.8482C16.751 20.8273 16.7622 20.8112 16.7816 20.7999C17.0341 20.6535 17.2867 20.5102 17.5393 20.367C18.0332 20.0901 18.6671 19.8953 19.2109 19.5219C19.264 19.4849 19.2543 19.4028 19.1932 19.3802C19.1336 19.3577 19.0564 19.3625 18.9647 19.3947C18.5657 19.5348 18.17 19.6812 17.7758 19.8358C17.3269 20.0096 17.0502 20.28 16.6641 20.5215C16.6319 20.5424 16.5949 20.5022 16.6158 20.47C16.7333 20.2881 16.7832 20.1303 16.7639 19.9935C16.7542 19.9275 16.7767 19.8776 16.833 19.8406C17.3044 19.5331 17.7983 19.2853 18.318 19.0969C18.5078 19.0261 18.6381 18.9086 18.7894 18.7847C19.169 18.4708 19.1272 18.3967 18.6639 18.5657C18.0284 18.7975 17.3591 19.0937 16.6545 19.4527C16.5869 19.4865 16.5628 19.4672 16.5821 19.3931L16.6738 19.0454C16.6947 18.9665 16.7413 18.9054 16.8121 18.8651C17.6793 18.3678 18.5175 17.9863 19.3235 17.7207C19.3782 17.703 19.391 17.6692 19.3637 17.6193C19.3074 17.5211 19.2286 17.4857 19.124 17.5098C18.2456 17.7175 17.4299 18.0072 16.6786 18.3806C16.5418 18.4482 16.5129 18.4177 16.5949 18.2873C16.796 17.9718 17.1805 17.7062 17.5393 17.5774C18.1458 17.3601 18.733 17.0704 19.2977 16.7114C19.3814 16.6583 19.4136 16.5859 19.3927 16.4925C19.3814 16.4362 19.3476 16.4169 19.2929 16.4378C18.3823 16.7726 17.512 17.1492 16.6802 17.5661C16.5949 17.608 16.5611 17.5822 16.5788 17.4905L16.6384 17.1814C16.6561 17.0832 16.7124 17.0173 16.8057 16.9818C17.5844 16.6824 18.363 16.3074 19.1401 15.8583C19.1674 15.8422 19.1819 15.8213 19.1851 15.7955C19.1899 15.7553 19.1739 15.7408 19.1352 15.7521C18.7009 15.8696 18.3196 16.0531 17.8723 16.1416C17.4975 16.2173 17.15 16.3251 16.8282 16.4651C16.7413 16.5038 16.7011 16.4764 16.7059 16.3814L16.7092 16.3122C16.7156 16.2076 16.7783 16.1126 16.8733 16.0659C17.3752 15.8245 17.8965 15.6072 18.4386 15.414C18.6124 15.3529 18.8698 15.2016 18.9808 15.1018C19.2398 14.8732 19.2028 14.804 18.8698 14.8941C18.3373 15.0374 17.5892 15.2563 16.6255 15.5509C16.6078 15.5557 16.5917 15.5396 16.5981 15.5219L16.7494 15.113C16.7639 15.0728 16.7928 15.0486 16.833 15.0374C17.5586 14.8378 18.318 14.6462 18.9229 14.1569C19.0693 14.0378 19.05 13.9959 18.865 14.0329C18.6446 14.0764 18.4209 14.1585 18.1812 14.1698C17.8418 14.1859 17.5747 14.2712 17.38 14.4241C17.2658 14.5142 17.1355 14.5625 16.9907 14.5674C16.9312 14.569 16.8829 14.5947 16.8459 14.6414L16.7687 14.7412C16.7317 14.7911 16.7156 14.7847 16.722 14.7219L16.7606 14.3935C16.7655 14.3533 16.8009 14.3243 16.8395 14.3291C16.9408 14.3404 17.039 14.3114 17.1371 14.2454C17.1918 14.2084 17.2513 14.1875 17.3173 14.1826C17.5908 14.1633 17.853 14.1054 18.1056 14.0088C18.2729 13.946 18.4209 13.9138 18.548 13.9122C18.7121 13.9106 18.8666 13.9171 19.013 13.9299C19.0854 13.9364 19.1272 13.9026 19.1369 13.8301L19.161 13.637C19.1674 13.5806 19.1433 13.5549 19.0886 13.5597C18.947 13.5694 18.8006 13.5967 18.6494 13.6402C18.4933 13.6869 18.3501 13.7094 18.2182 13.7078C17.8257 13.7046 17.5313 13.7287 17.335 13.7818C17.187 13.8205 17.0197 13.9203 16.8314 14.0812C16.7622 14.1408 16.7413 14.1279 16.7703 14.041C16.9167 13.6144 17.2449 13.6531 17.5699 13.5034C17.6246 13.4792 17.6809 13.4728 17.7404 13.4857C17.9254 13.5291 18.1024 13.5146 18.2729 13.4422C18.5963 13.307 18.9518 13.3537 19.301 13.3859C19.3927 13.3939 19.4393 13.4438 19.4409 13.5356C19.4602 14.6961 19.4811 15.8841 19.5021 17.0993C19.5085 17.4841 19.4956 17.8253 19.4634 18.1231C19.4538 18.2148 19.3733 18.2841 19.2816 18.2808C19.2607 18.2792 19.2414 18.2921 19.2269 18.3179C19.2044 18.3565 19.2157 18.371 19.2591 18.3597C19.3026 18.3484 19.346 18.3468 19.3894 18.3533C19.4457 18.3613 19.4731 18.3935 19.4747 18.4498L19.5262 21.5839C19.5278 21.7335 19.4554 21.8092 19.3074 21.814Z" fill="#5A5A5A"/>
</g>
<path d="M161.718 18.31C160.908 18.31 160.202 18.2306 159.599 18.0719C158.995 17.8973 158.416 17.675 157.86 17.4052V14.5954H158.241L159.122 15.8098C159.741 16.6829 160.567 17.1194 161.599 17.1194C162.758 17.1194 163.337 16.7464 163.337 16.0003C163.337 15.7463 163.266 15.532 163.123 15.3574C162.996 15.1828 162.734 15.0002 162.337 14.8097C161.956 14.6033 161.384 14.3573 160.622 14.0715C159.67 13.7064 158.987 13.262 158.575 12.7381C158.162 12.2143 157.956 11.611 157.956 10.9284C157.956 10.1665 158.138 9.48388 158.503 8.88066C158.884 8.26156 159.416 7.77739 160.099 7.42816C160.781 7.06305 161.583 6.88049 162.504 6.88049C163.012 6.88049 163.527 6.92812 164.051 7.02336C164.591 7.11861 165.107 7.29322 165.599 7.54721V10.5236H165.218L164.504 9.49975C164.155 9.00765 163.829 8.64254 163.527 8.40443C163.226 8.16631 162.821 8.04725 162.313 8.04725C161.869 8.04725 161.511 8.15837 161.242 8.38062C160.988 8.58698 160.861 8.88859 160.861 9.28545C160.861 9.52356 160.916 9.72993 161.027 9.90455C161.138 10.0792 161.369 10.2617 161.718 10.4522C162.083 10.6427 162.631 10.8729 163.361 11.1427C163.805 11.3015 164.242 11.4999 164.67 11.738C165.115 11.9603 165.48 12.2857 165.766 12.7143C166.067 13.1429 166.218 13.7303 166.218 14.4763C166.218 15.2542 166.012 15.9288 165.599 16.5003C165.186 17.0718 164.639 17.5163 163.956 17.8338C163.273 18.1512 162.527 18.31 161.718 18.31Z" fill="#F1F8F7"/>
<path d="M151.439 18.31C150.63 18.31 149.923 18.2306 149.32 18.0719C148.717 17.8973 148.138 17.675 147.582 17.4052V14.5954H147.963L148.844 15.8098C149.463 16.6829 150.289 17.1194 151.32 17.1194C152.479 17.1194 153.059 16.7464 153.059 16.0003C153.059 15.7463 152.987 15.532 152.844 15.3574C152.717 15.1828 152.455 15.0002 152.059 14.8097C151.678 14.6033 151.106 14.3573 150.344 14.0715C149.392 13.7064 148.709 13.262 148.296 12.7381C147.884 12.2143 147.677 11.611 147.677 10.9284C147.677 10.1665 147.86 9.48388 148.225 8.88066C148.606 8.26156 149.138 7.77739 149.82 7.42816C150.503 7.06305 151.305 6.88049 152.225 6.88049C152.733 6.88049 153.249 6.92812 153.773 7.02336C154.313 7.11861 154.829 7.29322 155.321 7.54721V10.5236H154.94L154.225 9.49975C153.876 9.00765 153.551 8.64254 153.249 8.40443C152.948 8.16631 152.543 8.04725 152.035 8.04725C151.59 8.04725 151.233 8.15837 150.963 8.38062C150.709 8.58698 150.582 8.88859 150.582 9.28545C150.582 9.52356 150.638 9.72993 150.749 9.90455C150.86 10.0792 151.09 10.2617 151.439 10.4522C151.805 10.6427 152.352 10.8729 153.082 11.1427C153.527 11.3015 153.963 11.4999 154.392 11.738C154.837 11.9603 155.202 12.2857 155.487 12.7143C155.789 13.1429 155.94 13.7303 155.94 14.4763C155.94 15.2542 155.733 15.9288 155.321 16.5003C154.908 17.0718 154.36 17.5163 153.678 17.8338C152.995 18.1512 152.249 18.31 151.439 18.31Z" fill="#F1F8F7"/>
<path d="M142.493 4.88052C141.938 4.88052 141.477 4.69797 141.112 4.33286C140.747 3.96775 140.565 3.5074 140.565 2.9518C140.565 2.3962 140.747 1.93584 141.112 1.57073C141.477 1.20563 141.938 1.02307 142.493 1.02307C143.049 1.02307 143.509 1.20563 143.874 1.57073C144.239 1.93584 144.422 2.3962 144.422 2.9518C144.422 3.5074 144.239 3.96775 143.874 4.33286C143.509 4.69797 143.049 4.88052 142.493 4.88052ZM138.755 18.0721V17.6911L140.398 16.9291V9.59519L138.826 8.5713V8.19031L144.303 6.88069H144.684V16.9291L146.041 17.6911V18.0721H138.755Z" fill="#F1F8F7"/>
<path d="M130.523 18.072V17.691L132.166 16.929V2.92788L130.595 1.90399V1.52301L136.071 0.213379H136.452V16.929L137.81 17.691V18.072H130.523Z" fill="#F1F8F7"/>
<path d="M113.205 18.072V17.691L115.324 16.6909V3.73751L113.205 2.73743V2.35645H121.849C123.039 2.35645 124.103 2.49138 125.039 2.76124C125.992 3.01523 126.738 3.40415 127.278 3.928C127.833 4.43598 128.111 5.08682 128.111 5.88054C128.111 6.69013 127.778 7.43622 127.111 8.11881C126.46 8.80141 125.531 9.27764 124.325 9.5475C125.944 9.76974 127.222 10.2222 128.159 10.9048C129.095 11.5873 129.564 12.4525 129.564 13.5002C129.564 14.3733 129.254 15.1591 128.635 15.8575C128.016 16.5401 127.167 17.0799 126.087 17.4767C125.023 17.8736 123.809 18.072 122.444 18.072H113.205ZM120.277 3.66607H119.848V9.42844H120.396C121.396 9.42844 122.174 9.17446 122.73 8.66648C123.301 8.1585 123.587 7.48384 123.587 6.6425C123.587 5.67417 123.309 4.93602 122.753 4.42804C122.214 3.92006 121.388 3.66607 120.277 3.66607ZM121.063 10.5H119.848V16.7624H121.23C122.325 16.7624 123.19 16.4608 123.825 15.8575C124.46 15.2543 124.777 14.4923 124.777 13.5716C124.777 12.5398 124.452 11.7699 123.801 11.2619C123.166 10.7539 122.253 10.5 121.063 10.5Z" fill="#F1F8F7"/>
<path d="M109.026 18.3101C108.328 18.3101 107.724 18.1037 107.216 17.691C106.708 17.2782 106.454 16.6988 106.454 15.9527V8.47594H104.502V8.33308L106.526 7.35681L108.217 4.73755H108.359V7.35681H111.503V8.47594H108.359V15.5479C108.359 15.9607 108.542 16.2623 108.907 16.4528C109.272 16.6433 109.701 16.7385 110.193 16.7385C110.494 16.7385 110.772 16.7226 111.026 16.6909C111.296 16.6591 111.526 16.6195 111.717 16.5718H111.788V16.81C111.63 17.1751 111.312 17.5164 110.836 17.8338C110.375 18.1513 109.772 18.3101 109.026 18.3101Z" fill="#F1F8F7"/>
<path d="M98.7066 18.31C97.1668 18.31 95.9524 17.8417 95.0634 16.9052C94.1745 15.9686 93.73 14.7304 93.73 13.1906C93.73 12 93.9602 10.9523 94.4205 10.0475C94.8967 9.12675 95.5158 8.41241 96.2778 7.90443C97.0556 7.38058 97.897 7.11865 98.8018 7.11865C100.056 7.11865 101.04 7.55519 101.754 8.42828C102.485 9.30137 102.85 10.5554 102.85 12.1905L102.731 12.3095H95.6111C95.627 13.0398 95.7698 13.7303 96.0397 14.3811C96.3096 15.0161 96.7382 15.532 97.3255 15.9289C97.9287 16.3257 98.7304 16.5242 99.7305 16.5242C100.604 16.5242 101.627 16.2067 102.802 15.5717H102.874V15.8098C102.508 16.4924 101.961 17.0798 101.231 17.5719C100.516 18.064 99.6749 18.31 98.7066 18.31ZM98.4208 8.16636C97.6589 8.16636 97.0318 8.43622 96.5397 8.97594C96.0635 9.4998 95.7698 10.2459 95.6587 11.2142H101.04C100.865 10.1348 100.556 9.35693 100.111 8.8807C99.6828 8.40447 99.1193 8.16636 98.4208 8.16636Z" fill="#F1F8F7"/>
<path d="M85.9169 14.6907C85.2185 14.6907 84.5756 14.5637 83.9882 14.3097C83.6707 14.4367 83.4405 14.6034 83.2977 14.8097C83.1707 15.0161 83.1072 15.2384 83.1072 15.4765C83.1072 16.2702 83.6707 16.667 84.7978 16.667H87.6552C88.814 16.667 89.6633 16.921 90.203 17.429C90.7586 17.937 91.0364 18.691 91.0364 19.6911C91.0364 20.3737 90.8062 21.0245 90.3459 21.6436C89.9014 22.2786 89.2585 22.7945 88.4171 23.1914C87.5917 23.5882 86.6075 23.7867 85.4645 23.7867C83.9565 23.7867 82.8691 23.5089 82.2023 22.9533C81.5515 22.4135 81.2261 21.7468 81.2261 20.9531C81.2261 20.3658 81.3689 19.8578 81.6547 19.4292L83.2977 18.3338V18.2386C82.6944 18.1116 82.2341 17.8814 81.9166 17.5481C81.5991 17.1988 81.4404 16.7782 81.4404 16.2861C81.4404 15.6828 81.6467 15.1749 82.0595 14.7621L83.3453 14.0954V13.9525C82.8373 13.6192 82.4325 13.1906 82.1309 12.6667C81.8293 12.1429 81.6785 11.5555 81.6785 10.9047C81.6785 10.1903 81.861 9.54742 82.2262 8.97594C82.5913 8.40447 83.0913 7.95205 83.7263 7.61869C84.3771 7.28533 85.1073 7.11865 85.9169 7.11865C86.2503 7.11865 86.6075 7.15834 86.9884 7.23771C87.3853 7.31708 87.7266 7.42026 88.0123 7.54726L91.5841 7.35677V8.64258L89.3696 8.49972L89.2743 8.59496C89.5283 8.8807 89.7347 9.22993 89.8934 9.64266C90.0681 10.0554 90.1554 10.4761 90.1554 10.9047C90.1554 11.619 89.9728 12.2619 89.6077 12.8334C89.2426 13.4049 88.7346 13.8573 88.0838 14.1906C87.4488 14.524 86.7265 14.6907 85.9169 14.6907ZM86.155 13.7144C86.79 13.7144 87.2901 13.4446 87.6552 12.9048C88.0203 12.3492 88.2028 11.7063 88.2028 10.9761C88.2028 10.103 87.9647 9.40455 87.4885 8.8807C87.0123 8.34097 86.4328 8.07111 85.7502 8.07111C85.0677 8.07111 84.5438 8.34891 84.1787 8.90451C83.8136 9.44424 83.631 10.0871 83.631 10.8332C83.631 11.6587 83.8691 12.3492 84.3454 12.9048C84.8216 13.4446 85.4248 13.7144 86.155 13.7144ZM82.9167 20.6912C82.9167 21.3896 83.1865 21.9691 83.7263 22.4294C84.2819 22.8898 84.9565 23.1199 85.7502 23.1199C86.4646 23.1199 87.0837 22.9771 87.6075 22.6913C88.1473 22.4215 88.56 22.0564 88.8457 21.596C89.1473 21.1515 89.2982 20.6753 89.2982 20.1673C89.2982 19.4689 89.1077 18.9847 88.7267 18.7148C88.3616 18.445 87.6948 18.31 86.7265 18.31H84.1787C84.1311 18.31 84.0914 18.31 84.0596 18.31C83.631 18.564 83.3294 18.8815 83.1548 19.2625C82.9961 19.6593 82.9167 20.1356 82.9167 20.6912Z" fill="#F1F8F7"/>
<path d="M71.6637 18.3101C70.87 18.3101 70.1556 18.1116 69.5207 17.7148C68.9016 17.3179 68.4095 16.7623 68.0444 16.048C67.6951 15.3178 67.5205 14.4526 67.5205 13.4525C67.5205 12.1032 67.7824 10.9603 68.3063 10.0237C68.8301 9.07124 69.5286 8.34896 70.4017 7.85685C71.2748 7.36475 72.2272 7.1187 73.2591 7.1187C73.7035 7.1187 74.0925 7.14251 74.4258 7.19013C74.7592 7.22188 75.0608 7.2695 75.3307 7.333V2.92788L73.7829 1.68969V1.52301L77.0927 0.213379H77.2356V17.0004L78.9262 17.691V18.072H75.5688L75.3783 16.8576H75.2116C74.6084 17.3656 74.021 17.7386 73.4496 17.9767C72.894 18.199 72.2987 18.3101 71.6637 18.3101ZM69.4254 12.9049C69.4254 14.2224 69.7747 15.1828 70.4731 15.7861C71.1716 16.3734 72.005 16.6671 72.9733 16.6671C73.3543 16.6671 73.7432 16.6115 74.1401 16.5004C74.5528 16.3734 74.9497 16.1909 75.3307 15.9527V9.28554C74.9497 8.95218 74.5687 8.70613 74.1877 8.54739C73.8226 8.37277 73.4099 8.28546 72.9495 8.28546C72.3145 8.28546 71.7272 8.4442 71.1875 8.76169C70.6636 9.0633 70.235 9.5554 69.9017 10.238C69.5842 10.9047 69.4254 11.7937 69.4254 12.9049Z" fill="#F1F8F7"/>
<path d="M58.4824 18.31C57.5458 18.31 56.7759 18.0798 56.1726 17.6194C55.5853 17.1432 55.2916 16.4447 55.2916 15.524V8.47583L53.7915 7.73767V7.35669H57.1965V14.4049C57.1965 15.1033 57.4108 15.6351 57.8394 16.0002C58.2839 16.3654 58.8554 16.5479 59.5539 16.5479C59.9825 16.5479 60.4508 16.4765 60.9587 16.3336C61.4826 16.1907 61.8953 15.9844 62.1969 15.7145V8.47583L60.5063 7.73767V7.35669H64.1019V17.0003L65.7925 17.6909V18.0718H62.1969V16.5717H62.0779C61.4747 17.1749 60.8873 17.6194 60.3158 17.9052C59.7602 18.175 59.1491 18.31 58.4824 18.31Z" fill="#F1F8F7"/>
<path d="M39 17.8823V17.5013L40.9049 16.5489V3.50019L39 2.54773V2.16675H45.0243C46.072 2.16675 47.0086 2.30168 47.834 2.57154C48.6754 2.82553 49.3342 3.21445 49.8104 3.7383C50.2866 4.24628 50.5247 4.89713 50.5247 5.69084C50.5247 6.50043 50.2549 7.24652 49.7151 7.92912C49.1754 8.59584 48.3976 9.07207 47.3816 9.3578C48.7944 9.54829 49.8977 9.99277 50.6914 10.6912C51.4851 11.3738 51.882 12.2469 51.882 13.3105C51.882 14.1836 51.6042 14.9694 51.0486 15.6678C50.5089 16.3504 49.7628 16.8902 48.8103 17.287C47.8579 17.6839 46.7784 17.8823 45.572 17.8823H39ZM44.4766 3.47638H43.0479V9.11969H44.6195C45.7466 9.11969 46.6276 8.88157 47.2626 8.40534C47.8975 7.91324 48.215 7.23065 48.215 6.35756C48.215 4.43677 46.9689 3.47638 44.4766 3.47638ZM45.3815 10.4293H43.0479V16.5727H45.5481C46.8022 16.5727 47.7864 16.2869 48.5008 15.7155C49.2151 15.144 49.5723 14.4058 49.5723 13.501C49.5723 12.4215 49.2072 11.6437 48.477 11.1675C47.7626 10.6754 46.7308 10.4293 45.3815 10.4293Z" fill="#F1F8F7"/>
<circle cx="142.458" cy="2.79167" r="2.16667" fill="#00BF13"/>
<defs>
<clipPath id="clip0_34_13452">
<rect width="26" height="24" fill="white"/>
</clipPath>
</defs>
</svg>
