<svg width="16" height="17" viewBox="0 0 16 17" fill="none" xmlns="http://www.w3.org/2000/svg">
<path d="M10 12.25C9.95093 13.4846 8.92206 14.5329 7.54376 14.4992C7.2231 14.4914 6.82675 14.3796 6.03408 14.156C4.12641 13.6179 2.47037 12.7136 2.07304 10.6877C2 10.3153 2 9.89626 2 9.05817L2 7.94183C2 7.10374 2 6.6847 2.07304 6.31231C2.47037 4.28644 4.12641 3.38211 6.03408 2.84402C6.82676 2.62043 7.2231 2.50864 7.54376 2.50079C8.92206 2.46707 9.95093 3.51538 10 4.75" stroke="#D2D2D2" stroke-width="1.5" stroke-linecap="round"/>
<path d="M13.9998 8.49992H6.6665M13.9998 8.49992C13.9998 8.0331 12.6703 7.16094 12.3332 6.83325M13.9998 8.49992C13.9998 8.96674 12.6703 9.8389 12.3332 10.1666" stroke="#D2D2D2" stroke-width="1.5" stroke-linecap="round" stroke-linejoin="round"/>
</svg>
