<svg width="128" height="40" viewBox="0 0 128 40" fill="none" xmlns="http://www.w3.org/2000/svg">
<g clip-path="url(#clip0_274_3340)">
<path d="M36.6479 28.3219C36.469 27.8196 36.2598 27.3336 36.0608 26.8834C35.7542 26.1949 35.4418 25.509 35.1237 24.8258L35.0988 24.7724C32.2881 18.6908 29.345 12.6713 26.2715 6.71821L26.1401 6.4638C25.8205 5.83937 25.4954 5.21781 25.1647 4.5992C24.7678 3.81285 24.2865 3.07208 23.7291 2.39001C23.1014 1.6413 22.3171 1.03934 21.4315 0.626533C20.5454 0.213563 19.5797 -0.000372847 18.6021 -0.000244083C17.6245 -0.000115318 16.6588 0.214075 15.7729 0.627278C14.8874 1.04029 14.1033 1.64242 13.4757 2.39125C12.9192 3.07345 12.4383 3.81402 12.0414 4.59995C11.7078 5.22427 11.3796 5.85154 11.0571 6.48169L10.9353 6.71771C7.86193 12.6711 4.91871 18.6909 2.10777 24.7726L2.06752 24.8596C1.75484 25.5316 1.44767 26.2061 1.14603 26.8832C0.947272 27.3331 0.738328 27.8188 0.559198 28.3224C0.0459766 29.6941 -0.11762 31.1719 0.0831729 32.6226C0.296389 34.089 0.889427 35.4742 1.80342 36.6407C2.71828 37.8079 3.92191 38.7162 5.29535 39.2757C6.33343 39.6954 7.44297 39.91 8.56268 39.9078C8.91481 39.9078 9.26578 39.8873 9.6156 39.8464C11.0317 39.6663 12.3977 39.2054 13.6335 38.4909C15.2541 37.5803 16.8548 36.2459 18.6034 34.3391C20.352 36.2459 21.9525 37.5803 23.5734 38.4906C24.8092 39.2053 26.1751 39.6662 27.5912 39.8464C27.9408 39.887 28.2923 39.9075 28.6442 39.9078C29.7639 39.9103 30.8735 39.6956 31.9112 39.2757C33.2848 38.7162 34.4885 37.808 35.4034 36.6407C36.3174 35.4742 36.9105 34.089 37.1237 32.6226C37.3242 31.1717 37.1607 29.6938 36.6479 28.3219ZM18.6034 30.4007C16.4387 27.6568 15.0499 25.1088 14.5624 22.9729C14.3625 22.1726 14.3153 21.3417 14.4233 20.5239C14.5085 19.9243 14.7288 19.3518 15.0675 18.8496C15.4846 18.3089 16.0202 17.8711 16.6332 17.5701C17.2465 17.2692 17.9206 17.1128 18.6037 17.1129C19.2869 17.113 19.9609 17.2696 20.5741 17.5706C21.187 17.8717 21.7226 18.3094 22.1396 18.8501C22.4783 19.3523 22.6986 19.9249 22.7838 20.5247C22.8912 21.3428 22.8438 22.1738 22.6442 22.9744C22.1562 25.1103 20.7676 27.6576 18.6034 30.4007ZM34.5955 32.2613C34.4465 33.2866 34.0319 34.2551 33.3927 35.0705C32.7531 35.8868 31.9115 36.5219 30.951 36.913C29.9794 37.3023 28.9252 37.4402 27.8862 37.314C26.8062 37.1748 25.7654 36.8193 24.826 36.2688C23.3833 35.4583 21.9229 34.2141 20.2794 32.3888C22.8956 29.1632 24.5294 26.19 25.1341 23.5416C25.4061 22.4281 25.4651 21.2732 25.308 20.1378C25.1651 19.1595 24.802 18.2263 24.2462 17.4086C23.5943 16.5261 22.7442 15.8089 21.7644 15.315C20.7841 14.8207 19.7015 14.5633 18.6037 14.5633C17.5058 14.5633 16.4232 14.8207 15.4429 15.315C14.4631 15.8087 13.613 16.5257 12.9609 17.4081C12.4052 18.2255 12.0421 19.1583 11.8991 20.1363C11.7418 21.2714 11.8005 22.4259 12.072 23.5391C12.6765 26.1883 14.3103 29.1624 16.9271 32.389C15.2839 34.2141 13.8235 35.4583 12.3808 36.269C11.4414 36.8195 10.4006 37.1749 9.32069 37.314C8.28153 37.4402 7.22731 37.3023 6.2556 36.913C5.29543 36.5216 4.45392 35.8867 3.8141 35.0708C3.17503 34.2552 2.76047 33.2867 2.61162 32.2613C2.46866 31.2193 2.5905 30.1581 2.96591 29.1756C3.10851 28.7741 3.27572 28.3806 3.48268 27.9125C3.77869 27.2483 4.08006 26.5865 4.38678 25.9272L4.42702 25.8397C7.2225 19.7918 10.1496 13.8056 13.2062 7.88541L13.3284 7.64815C13.6414 7.04119 13.9649 6.41336 14.2914 5.8069C14.6038 5.18169 14.9818 4.59146 15.4191 4.04616C15.8072 3.57813 16.2937 3.20142 16.8441 2.94284C17.3944 2.68426 17.9949 2.55017 18.6029 2.55013C19.211 2.55008 19.8115 2.68407 20.3619 2.94256C20.9122 3.20106 21.3988 3.57769 21.787 4.04566C22.2246 4.5905 22.6027 5.18051 22.915 5.80566C23.2382 6.40691 23.5589 7.02902 23.8693 7.63051L24.0009 7.88566C27.0576 13.8059 29.9846 19.7922 32.7798 25.8402L32.8047 25.8939C33.1103 26.5555 33.4265 27.2392 33.7242 27.9127C33.9314 28.3813 34.0988 28.7754 34.2412 29.1754C34.6166 30.1578 34.7384 31.2191 34.5955 32.2611M51.985 30.0795C50.9888 30.0795 50.072 29.8798 49.2347 29.4804C48.3975 29.0809 47.6802 28.5214 47.0424 27.8027C46.4047 27.0839 45.9264 26.2449 45.5674 25.3259C45.2086 24.3672 45.0491 23.3284 45.0491 22.2101C45.0491 21.0919 45.2486 20.0129 45.6074 19.0541C45.9662 18.0954 46.4844 17.2566 47.1222 16.4976C47.7599 15.7786 48.5172 15.1793 49.3942 14.7798C50.2712 14.3803 51.188 14.1806 52.2245 14.1806C53.2208 14.1806 54.0978 14.3803 54.8953 14.8198C55.6926 15.2193 56.3304 15.8186 56.8484 16.5773L56.9681 14.6201H60.6352V29.6802H56.9681L56.8484 27.4832C56.3304 28.2819 55.6526 28.9212 54.7756 29.4004C53.9783 29.8402 53.0216 30.0797 51.9853 30.0797M52.9423 26.4847C53.6598 26.4847 54.2976 26.2849 54.8956 25.9254C55.4536 25.5259 55.8919 25.0067 56.2509 24.3677C56.5696 23.7284 56.7291 22.9694 56.7291 22.1304C56.7291 21.2914 56.5696 20.5324 56.2509 19.8934C55.9319 19.2541 55.4534 18.7349 54.8956 18.3356C54.3373 17.9359 53.6598 17.7761 52.9423 17.7761C52.2248 17.7761 51.587 17.9758 50.989 18.3354C50.431 18.7349 49.9925 19.2541 49.6337 19.8931C49.3147 20.5324 49.1552 21.2914 49.1552 22.1304C49.1552 22.9694 49.3147 23.7284 49.6337 24.3674C49.9525 25.0067 50.431 25.5259 50.989 25.9252C51.587 26.2849 52.2248 26.4847 52.9423 26.4847ZM66.8941 10.5455C66.8941 10.985 66.8144 11.3845 66.6149 11.704C66.4081 12.0371 66.1201 12.312 65.7778 12.5031C65.4191 12.7028 65.0206 12.7826 64.6221 12.7826C64.2235 12.7826 63.8245 12.7028 63.4658 12.5031C63.1235 12.312 62.8355 12.0371 62.6288 11.704C62.4295 11.3445 62.3498 10.985 62.3498 10.5455C62.3498 10.1063 62.4293 9.70678 62.6288 9.38703C62.828 9.02753 63.107 8.78802 63.466 8.58827C63.8245 8.38852 64.2233 8.30852 64.6221 8.30852C65.0208 8.30852 65.4191 8.38852 65.7778 8.58827C66.1202 8.7792 66.4083 9.05407 66.6151 9.38703C66.7744 9.70678 66.8941 10.0663 66.8941 10.5455ZM62.6288 29.6404V14.5801H66.6149V29.6402L62.6288 29.6404ZM77.2583 18.5349V18.5751C77.0591 18.4951 76.8198 18.4551 76.6203 18.4154C76.3813 18.3754 76.1818 18.3754 75.9428 18.3754C74.8265 18.3754 73.9895 18.6949 73.4315 19.3741C72.8335 20.0531 72.5545 21.0119 72.5545 22.2501V29.6404H68.5684V14.5801H72.2355L72.3552 16.8571C72.7537 16.0581 73.2322 15.4588 73.9098 15.0196C74.5475 14.5798 75.3048 14.3803 76.1818 14.3803C76.4611 14.3803 76.7401 14.4201 76.9793 14.4601C77.0986 14.5001 77.1783 14.5001 77.2583 14.5401V18.5349ZM78.8526 29.6404V8.38827H82.839V16.4976C83.397 15.7788 84.0347 15.2193 84.832 14.7801C85.6295 14.3806 86.5065 14.1408 87.5028 14.1408C88.4992 14.1408 89.416 14.3406 90.2531 14.7401C91.0904 15.1396 91.8079 15.6988 92.4457 16.4178C93.0837 17.1368 93.5619 17.9758 93.9207 18.8949C94.2794 19.8534 94.4387 20.8919 94.4387 22.0104C94.4387 23.1291 94.2394 24.2076 93.8809 25.1664C93.5219 26.1252 93.0039 26.9639 92.3659 27.7229C91.7281 28.4422 90.9709 29.0412 90.0939 29.4407C89.2168 29.8402 88.3001 30.0399 87.2638 30.0399C86.267 30.0399 85.3903 29.8402 84.593 29.4007C83.7955 29.0012 83.1577 28.4019 82.6397 27.6432L82.52 29.6004L78.8526 29.6404ZM86.546 26.4847C87.2638 26.4847 87.9016 26.2849 88.4993 25.9254C89.0573 25.5259 89.4958 25.0067 89.8546 24.3677C90.1736 23.7284 90.3331 22.9694 90.3331 22.1304C90.3331 21.2914 90.1736 20.5324 89.8546 19.8934C89.4958 19.2541 89.0573 18.7349 88.4993 18.3356C87.9413 17.9359 87.2638 17.7761 86.546 17.7761C85.8285 17.7761 85.1908 17.9758 84.593 18.3354C84.0347 18.7349 83.5962 19.2541 83.2375 19.8931C82.9187 20.5324 82.7592 21.2914 82.7592 22.1304C82.7592 22.9694 82.9187 23.7284 83.2375 24.3674C83.5565 25.0067 84.035 25.5259 84.593 25.9252C85.1908 26.2849 85.8285 26.4847 86.546 26.4847ZM95.9537 29.6404V14.5801H99.6208L99.7406 16.5376C100.179 15.8183 100.777 15.2591 101.534 14.8198C102.292 14.3803 103.169 14.1806 104.165 14.1806C105.281 14.1806 106.238 14.4601 107.035 14.9796C107.872 15.4988 108.51 16.2578 108.949 17.2166C109.387 18.1754 109.626 19.3336 109.626 20.6521V29.6802H105.64V21.1714C105.64 20.1329 105.401 19.2939 104.923 18.6944C104.444 18.0956 103.806 17.7758 102.969 17.7758C102.371 17.7758 101.853 17.8956 101.375 18.1754C100.936 18.4549 100.578 18.8144 100.299 19.3339C100.02 19.8131 99.9001 20.4121 99.9001 21.0116V29.6402L95.9537 29.6404ZM111.619 29.6404V8.38827H115.606V16.4976C116.164 15.7788 116.801 15.2193 117.599 14.7801C118.396 14.3806 119.273 14.1408 120.27 14.1408C121.266 14.1408 122.183 14.3406 123.02 14.7401C123.857 15.1396 124.575 15.6988 125.212 16.4178C125.851 17.1368 126.328 17.9758 126.688 18.8949C127.047 19.8534 127.205 20.8919 127.205 22.0104C127.205 23.1291 127.007 24.2076 126.648 25.1664C126.289 26.1252 125.771 26.9639 125.132 27.7229C124.495 28.4422 123.738 29.0412 122.861 29.4407C121.984 29.8402 121.067 30.0399 120.031 30.0399C119.034 30.0399 118.157 29.8402 117.36 29.4007C116.562 29.0012 115.925 28.4019 115.406 27.6432L115.287 29.6004L111.619 29.6404ZM119.353 26.4847C120.07 26.4847 120.708 26.2849 121.306 25.9254C121.864 25.5259 122.302 25.0067 122.661 24.3677C122.98 23.7284 123.14 22.9694 123.14 22.1304C123.14 21.2914 122.98 20.5324 122.661 19.8934C122.343 19.2541 121.864 18.7349 121.306 18.3356C120.748 17.9359 120.07 17.7761 119.353 17.7761C118.635 17.7761 117.997 17.9758 117.399 18.3354C116.841 18.7349 116.403 19.2541 116.044 19.8931C115.685 20.5324 115.566 21.2914 115.566 22.1304C115.566 22.9694 115.725 23.7284 116.044 24.3674C116.363 25.0067 116.842 25.5259 117.399 25.9252C117.997 26.2849 118.595 26.4847 119.353 26.4847Z" fill="#606060"/>
</g>
<defs>
<clipPath id="clip0_274_3340">
<rect width="127.205" height="40" fill="white"/>
</clipPath>
</defs>
</svg>
