<svg width="28" height="28" viewBox="0 0 28 28" fill="none" xmlns="http://www.w3.org/2000/svg">
<path d="M16.7809 13.9524C16.7809 15.4586 15.5598 16.6796 14.0536 16.6796C12.5474 16.6796 11.3263 15.4586 11.3263 13.9524C11.3263 12.4461 12.5474 11.2251 14.0536 11.2251C15.5598 11.2251 16.7809 12.4461 16.7809 13.9524Z" stroke="#00BF13" stroke-width="1.63636"/>
<path d="M3.091 13.9524C3.091 10.0933 3.091 8.16376 4.23951 6.87553C4.42321 6.66949 4.62567 6.47894 4.84459 6.30605C6.21333 5.2251 8.26346 5.2251 12.3637 5.2251H15.6365C19.7367 5.2251 21.7869 5.2251 23.1556 6.30605C23.3745 6.47894 23.577 6.66949 23.7607 6.87553C24.9092 8.16376 24.9092 10.0933 24.9092 13.9524C24.9092 17.8114 24.9092 19.741 23.7607 21.0292C23.577 21.2353 23.3745 21.4258 23.1556 21.5987C21.7869 22.6796 19.7367 22.6796 15.6365 22.6796H12.3637C8.26346 22.6796 6.21333 22.6796 4.84459 21.5987C4.62567 21.4258 4.42321 21.2353 4.23951 21.0292C3.091 19.741 3.091 17.8114 3.091 13.9524Z" stroke="#00BF13" stroke-width="1.63636" stroke-linecap="round" stroke-linejoin="round"/>
<path d="M21.1017 13.9521H21.0919" stroke="#00BF13" stroke-width="2.18182" stroke-linecap="round" stroke-linejoin="round"/>
<path d="M6.90912 13.9521H6.89932" stroke="#00BF13" stroke-width="2.18182" stroke-linecap="round" stroke-linejoin="round"/>
</svg>
