<svg width="16" height="17" viewBox="0 0 16 17" fill="none" xmlns="http://www.w3.org/2000/svg">
<g clip-path="url(#clip0_340_11108)">
<path d="M6.47541 5.6626C4.40336 5.6626 2.72363 7.1664 2.72363 9.02143H6.47541V5.6626Z" stroke="#D2D2D2" stroke-width="1.5"/>
<path d="M1.68985 10.9637C2.51562 12.5917 4.34753 13.7238 6.4748 13.7238L6.4748 9.02148H3.24827C2.27239 9.02148 1.78445 9.02148 1.48777 9.50094C1.19109 9.9804 1.35734 10.3082 1.68985 10.9637Z" stroke="#D2D2D2" stroke-width="1.5"/>
<path d="M8.47622 14.7972C11.2286 14.0335 13.2278 11.7364 13.2278 9.02124H6.47461V13.0518C6.47461 14.0342 6.47461 14.5255 6.87503 14.8279C7.27546 15.1303 7.67571 15.0192 8.47622 14.7972Z" stroke="#D2D2D2" stroke-width="1.5"/>
<path d="M14.4271 7.03565C13.6355 4.48903 11.3586 2.4963 8.48461 1.85249C7.65161 1.66589 7.23511 1.57259 6.85486 1.87514C6.47461 2.17768 6.47461 2.6675 6.47461 3.64714V9.02127H12.7026C13.6891 9.02127 14.1824 9.02127 14.4861 8.6117C14.7897 8.20213 14.6689 7.8133 14.4271 7.03565Z" stroke="#D2D2D2" stroke-width="1.5"/>
</g>
<defs>
<clipPath id="clip0_340_11108">
<rect width="16" height="16" fill="white" transform="translate(0 0.346191)"/>
</clipPath>
</defs>
</svg>
