<svg width="16" height="17" viewBox="0 0 16 17" fill="none" xmlns="http://www.w3.org/2000/svg">
<g clip-path="url(#clip0_340_11838)">
<path d="M14.2115 5.1072L13.8824 4.53614C13.6336 4.10425 13.5091 3.8883 13.2974 3.80219C13.0857 3.71608 12.8463 3.78403 12.3674 3.91993L11.5539 4.14906C11.2481 4.21956 10.9274 4.17957 10.6482 4.03614L10.4236 3.90655C10.1842 3.75323 10.0001 3.52716 9.89818 3.26143L9.67555 2.59651C9.52916 2.1565 9.45597 1.93649 9.28172 1.81065C9.10747 1.68481 8.87602 1.68481 8.41311 1.68481H7.66993C7.20702 1.68481 6.97557 1.68481 6.80132 1.81065C6.62707 1.93649 6.55388 2.1565 6.4075 2.59651L6.18486 3.26143C6.08294 3.52716 5.89881 3.75323 5.65942 3.90655L5.43483 4.03614C5.15566 4.17957 4.8349 4.21956 4.52916 4.14906L3.71567 3.91993C3.23678 3.78403 2.99733 3.71608 2.78562 3.80219C2.5739 3.8883 2.44947 4.10425 2.20061 4.53614L1.87155 5.1072C1.63827 5.51203 1.52164 5.71445 1.54428 5.92993C1.56691 6.14541 1.72306 6.31906 2.03534 6.66635L2.72271 7.43482C2.8907 7.6475 3.00998 8.01815 3.00998 8.35137C3.00998 8.68481 2.89074 9.05536 2.72272 9.26807L2.03535 10.0366C1.72306 10.3838 1.56691 10.5575 1.54428 10.773C1.52164 10.9885 1.63828 11.1909 1.87155 11.5957L2.2006 12.1668C2.44945 12.5986 2.5739 12.8146 2.78562 12.9007C2.99734 12.9868 3.23679 12.9189 3.71568 12.783L4.52913 12.5538C4.83492 12.4833 5.15575 12.5233 5.43495 12.6668L5.6595 12.7964C5.89884 12.9497 6.08293 13.1758 6.18484 13.4415L6.4075 14.1065C6.55388 14.5465 6.62707 14.7665 6.80132 14.8923C6.97557 15.0181 7.20702 15.0181 7.66993 15.0181H8.41311C8.87602 15.0181 9.10747 15.0181 9.28172 14.8923C9.45597 14.7665 9.52916 14.5465 9.67555 14.1065L9.8982 13.4415C10.0001 13.1758 10.1842 12.9497 10.4235 12.7964L10.6481 12.6668C10.9273 12.5233 11.2481 12.4833 11.5539 12.5538L12.3674 12.783C12.8463 12.9189 13.0857 12.9868 13.2974 12.9007C13.5091 12.8146 13.6336 12.5986 13.8824 12.1668L13.8824 12.1668L14.2115 11.5957C14.4448 11.1909 14.5614 10.9885 14.5388 10.773C14.5161 10.5575 14.36 10.3838 14.0477 10.0366L13.3603 9.26807C13.1923 9.05536 13.0731 8.68481 13.0731 8.35137C13.0731 8.01815 13.1923 7.6475 13.3603 7.43482L14.0477 6.66635C14.36 6.31906 14.5161 6.14541 14.5388 5.92993C14.5614 5.71445 14.4448 5.51203 14.2115 5.1072Z" stroke="#D2D2D2" stroke-width="1.5" stroke-linecap="round"/>
<path d="M10.3464 8.34627C10.3464 9.63494 9.30169 10.6796 8.01302 10.6796C6.72436 10.6796 5.67969 9.63494 5.67969 8.34627C5.67969 7.05761 6.72436 6.01294 8.01302 6.01294C9.30169 6.01294 10.3464 7.05761 10.3464 8.34627Z" stroke="#D2D2D2" stroke-width="1.5"/>
</g>
<defs>
<clipPath id="clip0_340_11838">
<rect width="16" height="16" fill="white" transform="translate(0 0.346191)"/>
</clipPath>
</defs>
</svg>
