<svg width="24" height="25" viewBox="0 0 24 25" fill="none" xmlns="http://www.w3.org/2000/svg">
<path d="M14.7731 9.89362L9 15.6667M14.7731 9.89362C14.2678 9.38831 11.8846 9.8834 11.1649 9.89362M14.7731 9.89362C15.2784 10.3989 14.7834 12.7822 14.7731 13.5018" stroke="#8E8E8E" stroke-width="1.5" stroke-linecap="round" stroke-linejoin="round"/>
<path d="M2.5 12.6667C2.5 8.18841 2.5 5.94923 3.89124 4.55799C5.28249 3.16675 7.52166 3.16675 12 3.16675C16.4783 3.16675 18.7175 3.16675 20.1088 4.55799C21.5 5.94923 21.5 8.18841 21.5 12.6667C21.5 17.1451 21.5 19.3843 20.1088 20.7755C18.7175 22.1667 16.4783 22.1667 12 22.1667C7.52166 22.1667 5.28249 22.1667 3.89124 20.7755C2.5 19.3843 2.5 17.1451 2.5 12.6667Z" stroke="#8E8E8E" stroke-width="1.5"/>
</svg>
