<svg width="25" height="25" viewBox="0 0 25 25" fill="none" xmlns="http://www.w3.org/2000/svg">
<path d="M9.56037 15.4399L15.3335 9.66675M9.56037 15.4399C10.0657 15.9452 12.4489 15.4501 13.1686 15.4399M9.56037 15.4399C9.05506 14.9346 9.55014 12.5513 9.56037 11.8317" stroke="#8E8E8E" stroke-width="1.5" stroke-linecap="round" stroke-linejoin="round"/>
<path d="M2.8335 12.6667C2.8335 8.18841 2.8335 5.94923 4.22474 4.55799C5.61598 3.16675 7.85515 3.16675 12.3335 3.16675C16.8118 3.16675 19.051 3.16675 20.4423 4.55799C21.8335 5.94923 21.8335 8.18841 21.8335 12.6667C21.8335 17.1451 21.8335 19.3843 20.4423 20.7755C19.051 22.1667 16.8118 22.1667 12.3335 22.1667C7.85515 22.1667 5.61598 22.1667 4.22474 20.7755C2.8335 19.3843 2.8335 17.1451 2.8335 12.6667Z" stroke="#8E8E8E" stroke-width="1.5"/>
</svg>
