<svg width="28" height="28" viewBox="0 0 28 28" fill="none" xmlns="http://www.w3.org/2000/svg">
<path d="M3.63641 13.952C3.63641 9.06655 3.63641 6.62382 5.15413 5.1061C6.67185 3.58838 9.11459 3.58838 14.0001 3.58838C18.8855 3.58838 21.3282 3.58838 22.846 5.1061C24.3637 6.62382 24.3637 9.06655 24.3637 13.952C24.3637 18.8375 24.3637 21.2802 22.846 22.7979C21.3282 24.3157 18.8855 24.3157 14.0001 24.3157C9.11459 24.3157 6.67185 24.3157 5.15413 22.7979C3.63641 21.2802 3.63641 18.8375 3.63641 13.952Z" stroke="#00BF13" stroke-width="1.63636"/>
<path d="M9.09094 19.4066C11.6346 16.7425 16.3381 16.617 18.9091 19.4066M16.722 11.2248C16.722 12.7311 15.4992 13.9521 13.9908 13.9521C12.4824 13.9521 11.2596 12.7311 11.2596 11.2248C11.2596 9.7186 12.4824 8.49756 13.9908 8.49756C15.4992 8.49756 16.722 9.7186 16.722 11.2248Z" stroke="#00BF13" stroke-width="1.63636" stroke-linecap="round"/>
</svg>
