<svg width="24" height="24" viewBox="0 0 24 24" fill="none" xmlns="http://www.w3.org/2000/svg">
<g clip-path="url(#clip0_738_3987)">
<g clip-path="url(#clip1_738_3987)">
<path d="M19.2246 4.196C19.2123 4.16034 19.1878 4.13583 19.1522 4.12245C19.0063 4.07231 18.8648 4.07008 18.7256 4.11688C17.6385 4.48128 16.2418 4.90363 14.5366 5.38504C14.4342 5.41402 14.3573 5.47085 14.305 5.55443C14.2727 5.60681 14.2838 5.67478 14.3317 5.7149L15.3341 6.53508C15.3965 6.58634 15.4043 6.67884 15.3519 6.74013L12.4505 10.1423C12.367 10.2393 12.2712 10.256 12.162 10.1902C11.6942 9.91054 11.2008 9.61745 10.6829 9.30989C10.5827 9.25082 10.4913 9.20513 10.41 9.17393C10.3399 9.14719 10.2597 9.1717 10.2185 9.23411C10.1093 9.39792 10.0157 9.54836 9.93666 9.68655C8.47091 12.2563 7.05083 14.8517 5.67641 17.4716C5.56391 17.6844 5.44139 17.8928 5.30774 18.0956C5.18188 18.2873 5.11617 18.4355 5.1106 18.5414C5.10057 18.7364 5.19302 18.8935 5.38905 19.015C5.42135 19.0351 5.45142 19.0328 5.48149 19.0094C5.70425 18.8311 5.85684 18.693 5.94037 18.596C6.95838 17.4047 8.00312 16.0407 8.91197 14.9587C9.61143 14.1273 10.3142 13.2971 11.0193 12.4669C11.085 12.39 11.1919 12.3666 11.2832 12.409L12.8281 13.1222C12.9183 13.1634 13.0241 13.1422 13.0909 13.0709C14.4988 11.5598 15.8676 9.89716 17.1485 8.44513C17.1975 8.39052 17.2487 8.38718 17.3033 8.43733L18.3202 9.38121C18.4137 9.46813 18.5641 9.44027 18.622 9.3266C18.6944 9.18173 18.739 9.04243 18.7557 8.90871C18.9316 7.4667 19.1032 6.02358 19.2702 4.58046C19.2847 4.45231 19.2702 4.32416 19.2246 4.196ZM16.4368 5.90212C16.3844 5.92552 16.3365 5.92663 16.2942 5.90546C16.2463 5.88206 16.2474 5.86088 16.2953 5.83971L16.4936 5.75502C16.5058 5.74945 16.5214 5.75836 16.5225 5.77173C16.5292 5.83191 16.5002 5.87537 16.4368 5.90212ZM17.6029 5.28475C17.0783 5.49871 16.6395 5.63912 16.6228 5.59789C16.6061 5.55666 17.0182 5.3505 17.5428 5.13542C18.0673 4.92146 18.5062 4.78105 18.5229 4.82228C18.5396 4.86352 18.1275 5.06968 17.6029 5.28475Z" fill="#00BF13"/>
<path d="M20.9232 19.4663C20.7038 19.2824 20.4376 19.2579 20.1257 19.2724C19.1567 19.3169 18.1877 19.2969 17.2198 19.2111C17.1831 19.2077 17.163 19.1877 17.1608 19.1509C17.1419 18.7988 17.1285 18.4544 17.1229 18.119C17.0906 16.4753 17.0851 14.8316 17.1051 13.1879C17.1096 12.8357 16.9391 12.6596 16.5939 12.6596C16.096 12.6596 15.4166 12.7198 14.5545 12.8391C14.1146 12.9004 13.8963 13.1366 13.8996 13.55C13.9152 15.3988 13.9286 17.2676 13.9397 19.1576C13.9408 19.1776 13.9252 19.1944 13.9052 19.1955C13.3282 19.2412 12.7435 19.2456 12.1498 19.2066C12.1097 19.2044 12.0897 19.1832 12.0886 19.142C12.083 17.8894 12.0886 16.4719 12.1031 14.8906C12.1053 14.7001 12.0507 14.5541 11.9393 14.4516C11.6464 14.1808 11.3011 14.2788 11.0037 14.5129C10.262 15.099 9.56695 15.7376 8.91984 16.4274C8.86192 16.4886 8.81737 16.5522 8.78507 16.6157C8.73495 16.7171 8.71044 16.7906 8.71156 16.8386C8.72827 17.6108 8.72715 18.3786 8.70933 19.142C8.70822 19.1832 8.67369 19.2166 8.63248 19.2178L4.3867 19.2423C4.34326 19.2423 4.32099 19.22 4.31987 19.1754C4.2976 18.0789 4.2898 16.9779 4.29537 15.8735C4.2976 15.5626 4.34215 15.2383 4.33992 14.9241C4.32767 12.5404 4.33213 10.1144 4.3544 7.64717C4.35552 7.55579 4.42012 7.47778 4.50922 7.46107C4.64622 7.43432 4.77207 7.38752 4.88791 7.32177C4.98704 7.26494 5.02379 7.13901 4.97033 7.03761C4.74089 6.60411 4.47803 6.18176 4.18065 5.77056C4.01024 5.53654 3.76855 5.35712 3.56584 5.69478C3.36758 6.02352 3.15708 6.46147 3.02453 6.84816C2.93877 7.10112 3.078 7.2928 3.43998 7.42318C3.53131 7.45661 3.5948 7.42764 3.63044 7.33737C3.66162 7.25825 3.70172 7.18025 3.74961 7.10335C3.75741 7.0911 3.76855 7.08107 3.78303 7.07438C3.80419 7.06546 3.82535 7.06992 3.84651 7.08775C3.85876 7.0989 3.86322 7.11561 3.86099 7.13121C3.81755 7.363 3.79528 7.51567 3.79528 7.58922C3.78748 8.39603 3.78748 9.26525 3.79528 10.198C3.79862 10.4877 3.72956 10.822 3.74404 11.1274C3.77077 11.6879 3.77969 12.2172 3.76966 12.7165C3.76186 13.121 3.76075 13.4921 3.76521 13.8297C3.77189 14.3747 3.78414 14.8249 3.71397 15.2795C3.69281 15.4155 3.68279 15.5269 3.6839 15.6127C3.70395 16.775 3.70172 17.9541 3.6761 19.1487C3.67499 19.2022 3.63601 19.2467 3.58254 19.2557C3.21833 19.3147 3.078 19.542 3.16153 19.9377C3.16933 19.9744 3.18826 20.0045 3.21833 20.0268C3.33528 20.1148 3.47116 20.1739 3.62821 20.2029C3.68056 20.2129 3.69726 20.2419 3.68056 20.292C3.5224 20.75 4.10937 20.8058 4.34104 20.5361C4.39339 20.4748 4.43348 20.3221 4.46355 20.0781C4.46801 20.0413 4.48917 20.0223 4.52593 20.0201C5.8324 19.9488 7.13666 19.9611 8.44313 19.9354C10.6228 19.8942 13.375 19.9778 14.9867 19.931C16.8801 19.8752 18.7736 19.8552 20.667 19.8708C20.7617 19.8708 20.8408 19.8518 20.9031 19.8117C21.0234 19.7326 21.0346 19.5599 20.9232 19.4663ZM10.4357 15.5893C10.7142 15.4122 10.9926 15.235 11.2699 15.0567C11.3134 15.0288 11.3446 15.0388 11.3646 15.0856C11.3969 15.1637 11.3991 15.2394 11.3724 15.3119C11.3546 15.3587 11.3045 15.3854 11.2555 15.372L11.1508 15.3431C11.1029 15.3297 11.0594 15.3386 11.0205 15.3709C10.801 15.5548 10.6273 15.6696 10.497 15.7153C10.0971 15.859 10.0771 15.8178 10.4357 15.5893ZM11.036 15.7966L10.8712 15.8312C10.8044 15.8457 10.7921 15.8267 10.8356 15.7732C10.8879 15.7097 10.9581 15.6997 11.0438 15.7454C11.0884 15.7688 11.0862 15.7855 11.036 15.7966ZM9.39877 18.3452L9.48008 18.0677C9.4901 18.0332 9.51126 18.0053 9.54245 17.9853C10.0815 17.6532 10.6774 17.3735 11.3312 17.145C11.3813 17.1272 11.3991 17.0648 11.3657 17.0236C11.3512 17.0057 11.3345 16.9912 11.3156 16.9812C11.2376 16.9411 11.1652 16.9333 11.0973 16.9567C10.4702 17.184 10.0102 17.3634 9.71509 17.4938C9.59145 17.5495 9.48787 17.6398 9.40434 17.7657C9.37872 17.8047 9.36758 17.8003 9.36981 17.7546C9.37649 17.6041 9.41213 17.5027 9.47785 17.4504C9.79751 17.1907 10.1205 16.9957 10.448 16.8664C10.7721 16.7383 11.0784 16.6101 11.3657 16.482C11.417 16.4586 11.4437 16.4753 11.4459 16.531C11.4504 16.677 11.4337 16.8296 11.3947 16.9879C11.3847 17.0291 11.3869 17.0715 11.4003 17.1116C11.4359 17.2175 11.4504 17.3255 11.4426 17.4336C11.4392 17.4704 11.4203 17.4938 11.3858 17.5038C10.6696 17.7167 10.0169 18.0053 9.42773 18.3675C9.39877 18.3853 9.38874 18.3775 9.39877 18.3452ZM11.4036 18.1C11.4069 18.1892 11.3635 18.2371 11.2744 18.2427C10.7453 18.2772 10.2419 18.4901 9.76855 18.7397C9.69726 18.7776 9.61596 18.7988 9.5302 18.8021C9.48008 18.8043 9.46114 18.7809 9.47562 18.733C9.48119 18.7163 9.4901 18.7018 9.50458 18.6907C9.99242 18.2928 10.6863 18.0053 11.2666 17.8315C11.3512 17.8058 11.3947 17.8382 11.398 17.9262L11.4036 18.1ZM11.3579 19.249C11.3357 19.2713 11.3011 19.2835 11.2555 19.2869C10.9904 19.3013 10.7264 19.298 10.4624 19.2768H10.4613C10.4613 19.2768 10.4613 19.2768 10.4624 19.2768H10.4691C10.4691 19.2768 10.4769 19.2757 10.4803 19.2724C10.5571 19.1966 10.6496 19.1654 10.7598 19.1788C10.7966 19.1832 10.83 19.1754 10.8612 19.1554C10.9982 19.0684 11.1463 19.0383 11.3045 19.0662C11.3423 19.0729 11.368 19.0941 11.3802 19.1308C11.3969 19.1776 11.3891 19.2178 11.3579 19.2501V19.249ZM11.4526 18.6461C11.4459 18.6851 11.4236 18.7107 11.3858 18.723C10.8734 18.8868 10.4001 19.0317 9.96458 19.1576C9.80642 19.2033 9.65494 19.2278 9.51126 19.2334C9.47228 19.2345 9.45223 19.2155 9.45112 19.1765L9.44778 19.0684C9.44666 19.0294 9.4656 19.0116 9.50458 19.0127C9.5948 19.0183 9.66831 19.0094 9.72511 18.986C10.0893 18.8411 10.4624 18.7219 10.8434 18.6271C10.8745 18.6193 10.9035 18.606 10.9302 18.587C11.0472 18.5034 11.1686 18.4332 11.2933 18.3764C11.3345 18.3575 11.368 18.3675 11.3913 18.4065C11.4437 18.4901 11.4649 18.5703 11.4526 18.6461ZM11.4103 16.1766C11.0015 16.2535 10.5861 16.3638 10.1639 16.5076C10.0414 16.5499 9.97571 16.6157 9.8699 16.6837C9.76409 16.7516 9.67276 16.7416 9.59814 16.6547C9.54802 16.5967 9.57141 16.5076 9.64269 16.482C9.91223 16.385 10.1762 16.2669 10.4346 16.1276C10.654 16.0095 10.8935 15.9994 11.1185 15.9192C11.173 15.8991 11.1853 15.8646 11.153 15.8167L11.1307 15.7821C11.1218 15.7688 11.1251 15.7598 11.1407 15.7543L11.3535 15.6796C11.3936 15.6662 11.4359 15.693 11.4404 15.7342L11.4771 16.0864C11.4827 16.1376 11.4604 16.1677 11.4103 16.1766ZM16.3667 19.1854L14.6436 19.2389C14.6135 19.24 14.6013 19.2267 14.6069 19.1966C14.6191 19.1242 14.667 19.074 14.7528 19.0473C15.0156 18.9648 15.264 18.8522 15.499 18.7085C15.5313 18.6895 15.5647 18.6851 15.6004 18.6951C15.7385 18.7352 15.8543 18.7196 15.9468 18.6472C16.0047 18.6026 16.0002 18.5959 15.9334 18.6271C15.8231 18.6795 15.7218 18.6762 15.6271 18.6182C15.5981 18.6004 15.6015 18.5569 15.6338 18.5447L16.3834 18.2639C16.4101 18.2538 16.4268 18.2282 16.4279 18.2003V18.1558C16.429 18.1301 16.4168 18.119 16.3912 18.1246C15.7463 18.2639 15.1404 18.4968 14.5712 18.821C14.5612 18.8266 14.5567 18.8244 14.5579 18.8121L14.5957 18.5168C14.5968 18.5023 14.6046 18.4912 14.618 18.4834C14.7929 18.382 14.9677 18.2828 15.1426 18.1836C15.4845 17.9919 15.9234 17.8571 16.2998 17.5986C16.3366 17.5729 16.3299 17.5161 16.2876 17.5005C16.2464 17.4849 16.1929 17.4882 16.1294 17.5105C15.8532 17.6075 15.5792 17.7089 15.3063 17.8159C14.9956 17.9362 14.804 18.1234 14.5367 18.2906C14.5144 18.3051 14.4888 18.2772 14.5033 18.2549C14.5846 18.129 14.6191 18.0198 14.6057 17.9251C14.5991 17.8794 14.6147 17.8448 14.6536 17.8192C14.98 17.6064 15.3219 17.4348 15.6817 17.3044C15.8131 17.2553 15.9033 17.174 16.008 17.0882C16.2709 16.8709 16.2419 16.8196 15.9211 16.9366C15.4812 17.0971 15.0179 17.3021 14.53 17.5507C14.4832 17.5741 14.4665 17.5607 14.4799 17.5094L14.5434 17.2687C14.5579 17.2141 14.5902 17.1718 14.6392 17.1439C15.2395 16.7996 15.8198 16.5355 16.3778 16.3516C16.4157 16.3393 16.4246 16.3159 16.4056 16.2814C16.3667 16.2134 16.3121 16.1889 16.2397 16.2056C15.6316 16.3494 15.0669 16.5499 14.5467 16.8085C14.452 16.8553 14.432 16.8341 14.4888 16.7438C14.628 16.5254 14.8942 16.3416 15.1426 16.2524C15.5625 16.102 15.969 15.9014 16.36 15.6529C16.4179 15.6161 16.4402 15.5659 16.4257 15.5013C16.4179 15.4623 16.3945 15.4489 16.3566 15.4634C15.7262 15.6952 15.1237 15.956 14.5478 16.2446C14.4888 16.2736 14.4654 16.2557 14.4777 16.1922L14.5189 15.9783C14.5311 15.9103 14.5701 15.8646 14.6347 15.8401C15.1738 15.6328 15.7129 15.3732 16.2508 15.0622C16.2698 15.0511 16.2798 15.0366 16.282 15.0188C16.2853 14.9909 16.2742 14.9809 16.2475 14.9887C15.9468 15.07 15.6828 15.1971 15.3732 15.2584C15.1136 15.3108 14.8731 15.3854 14.6503 15.4824C14.5902 15.5091 14.5623 15.4902 14.5657 15.4244L14.5679 15.3765C14.5723 15.3041 14.6158 15.2383 14.6815 15.206C15.029 15.0388 15.3899 14.8884 15.7652 14.7547C15.8855 14.7123 16.0637 14.6076 16.1406 14.5385C16.3199 14.3802 16.2943 14.3323 16.0637 14.3947C15.695 14.4939 15.1771 14.6455 14.51 14.8494C14.4977 14.8527 14.4866 14.8416 14.491 14.8293L14.5957 14.5463C14.6057 14.5184 14.6258 14.5017 14.6536 14.4939C15.156 14.3557 15.6817 14.2231 16.1005 13.8843C16.2018 13.8019 16.1884 13.7729 16.0604 13.7985C15.9078 13.8286 15.753 13.8855 15.587 13.8933C15.352 13.9044 15.1671 13.9635 15.0323 14.0693C14.9533 14.1317 14.863 14.1652 14.7628 14.1685C14.7216 14.1696 14.6882 14.1875 14.6626 14.2198L14.6091 14.2889C14.5835 14.3234 14.5723 14.319 14.5768 14.2755L14.6035 14.0482C14.6069 14.0203 14.6314 14.0002 14.6581 14.0036C14.7283 14.0114 14.7962 13.9913 14.8641 13.9456C14.902 13.92 14.9432 13.9055 14.9889 13.9022C15.1782 13.8888 15.3598 13.8487 15.5347 13.7818C15.6505 13.7384 15.753 13.7161 15.8409 13.715C15.9546 13.7138 16.0615 13.7183 16.1628 13.7272C16.213 13.7317 16.2419 13.7083 16.2486 13.6581L16.2653 13.5244C16.2698 13.4854 16.253 13.4676 16.2152 13.4709C16.1172 13.4776 16.0158 13.4965 15.9111 13.5266C15.8031 13.5589 15.7039 13.5745 15.6126 13.5734C15.3409 13.5712 15.137 13.5879 15.0011 13.6247C14.8987 13.6514 14.7828 13.7205 14.6525 13.832C14.6046 13.8732 14.5902 13.8643 14.6102 13.8041C14.7116 13.5088 14.9388 13.5355 15.1638 13.4319C15.2016 13.4152 15.2406 13.4107 15.2818 13.4197C15.4099 13.4497 15.5324 13.4397 15.6505 13.3896C15.8744 13.296 16.1205 13.3283 16.3622 13.3506C16.4257 13.3561 16.458 13.3907 16.4591 13.4542C16.4725 14.2577 16.4869 15.0801 16.5014 15.9214C16.5059 16.1878 16.497 16.424 16.4747 16.6302C16.468 16.6937 16.4123 16.7416 16.3488 16.7394C16.3344 16.7383 16.321 16.7472 16.311 16.765C16.2954 16.7918 16.3032 16.8018 16.3332 16.794C16.3633 16.7862 16.3934 16.7851 16.4235 16.7895C16.4624 16.7951 16.4814 16.8174 16.4825 16.8564L16.5181 19.0261C16.5192 19.1297 16.4691 19.1821 16.3667 19.1854Z" fill="#5A5A5A"/>
</g>
</g>
<defs>
<clipPath id="clip0_738_3987">
<rect width="18" height="16.5" fill="white" transform="translate(3 4.08337)"/>
</clipPath>
<clipPath id="clip1_738_3987">
<rect width="18" height="16.6154" fill="white" transform="translate(3 4.08337)"/>
</clipPath>
</defs>
</svg>
