<svg width="20" height="20" viewBox="0 0 20 20" fill="none" xmlns="http://www.w3.org/2000/svg">
<path d="M14.8705 5.35474C15.877 5.45437 16.5546 5.67956 17.0602 6.18847C17.9673 7.10129 17.9673 8.57044 17.9673 11.5087C17.9673 14.4471 17.9673 15.9162 17.0602 16.829C16.1532 17.7418 14.6934 17.7418 11.7737 17.7418H8.67695C5.75728 17.7418 4.29745 17.7418 3.39042 16.829C2.4834 15.9162 2.4834 14.4471 2.4834 11.5087C2.4834 8.57044 2.4834 7.10129 3.39042 6.18847C3.89611 5.67956 4.57363 5.45437 5.58017 5.35474" stroke="#8E8E8E" stroke-width="1.16129" stroke-linecap="round"/>
<path d="M15.2637 11.5483H15.2567" stroke="#8E8E8E" stroke-width="1.54839" stroke-linecap="round" stroke-linejoin="round"/>
<path d="M5.19922 11.5483H5.19226" stroke="#8E8E8E" stroke-width="1.54839" stroke-linecap="round" stroke-linejoin="round"/>
<path d="M12.161 11.5483C12.161 12.6172 11.2945 13.4838 10.2255 13.4838C9.15658 13.4838 8.29004 12.6172 8.29004 11.5483C8.29004 10.4793 9.15658 9.61279 10.2255 9.61279C11.2945 9.61279 12.161 10.4793 12.161 11.5483Z" stroke="#8E8E8E" stroke-width="1.16129"/>
<path d="M8.29004 4.19354C8.67058 3.80203 9.68341 2.25806 10.2255 2.25806M12.161 4.19354C11.7805 3.80203 10.7676 2.25806 10.2255 2.25806M10.2255 2.25806V6.90322" stroke="#8E8E8E" stroke-width="1.16129" stroke-linecap="round" stroke-linejoin="round"/>
</svg>
