<svg width="20" height="20" viewBox="0 0 20 20" fill="none" xmlns="http://www.w3.org/2000/svg">
<path d="M14.4516 5.35474C15.4581 5.45437 16.1356 5.67956 16.6413 6.18847C17.5483 7.10129 17.5483 8.57044 17.5483 11.5087C17.5483 14.4471 17.5483 15.9162 16.6413 16.829C15.7343 17.7418 14.2744 17.7418 11.3548 17.7418H8.258C5.33833 17.7418 3.8785 17.7418 2.97148 16.829C2.06445 15.9162 2.06445 14.4471 2.06445 11.5087C2.06445 8.57044 2.06445 7.10129 2.97148 6.18847C3.47717 5.67956 4.15469 5.45437 5.16123 5.35474" stroke="white" stroke-width="1.16129" stroke-linecap="round"/>
<path d="M7.87061 4.96784C8.25114 5.35935 9.26398 6.90332 9.80609 6.90332M11.7416 4.96784C11.361 5.35935 10.3482 6.90332 9.80609 6.90332M9.80609 6.90332V2.25816" stroke="white" stroke-width="1.16129" stroke-linecap="round" stroke-linejoin="round"/>
<path d="M14.8447 11.5483H14.8378" stroke="white" stroke-width="1.54839" stroke-linecap="round" stroke-linejoin="round"/>
<path d="M4.77979 11.5483H4.77283" stroke="white" stroke-width="1.54839" stroke-linecap="round" stroke-linejoin="round"/>
<path d="M11.7416 11.5483C11.7416 12.6172 10.875 13.4838 9.80609 13.4838C8.73715 13.4838 7.87061 12.6172 7.87061 11.5483C7.87061 10.4793 8.73715 9.61279 9.80609 9.61279C10.875 9.61279 11.7416 10.4793 11.7416 11.5483Z" stroke="white" stroke-width="1.16129"/>
</svg>
